<svg width="84" height="74" viewBox="0 0 84 74" fill="none" xmlns="http://www.w3.org/2000/svg">
<path d="M77.6499 56.6123L81.4181 57.167C82.6937 55.7123 83.573 53.9863 83.9797 52.1389C81.2243 54.2634 77.034 53.1344 73.6928 54.2943C72.6537 54.6636 71.7161 55.2484 70.9495 56.0053C70.1829 56.7623 69.607 57.6721 69.2645 58.6672L67.4229 60.5334C69.0899 61.155 70.8802 61.4289 72.6704 61.336C74.4606 61.2432 76.2081 60.7859 77.7926 59.9957C78.6769 59.5441 79.4972 58.9894 80.2343 58.3447C78.9158 57.5627 77.6499 56.6123 77.6499 56.6123Z" fill="#678EF4"/>
<path d="M76.3121 50.9355L79.9475 49.8491C80.4005 48.0112 80.3702 46.097 79.8595 44.2727C78.3992 47.3317 74.1142 48.0814 71.6728 50.5231C70.9176 51.2901 70.3553 52.2074 70.0276 53.2069C69.6999 54.2065 69.6152 55.2626 69.7798 56.2972L69.0151 58.7412C70.8015 58.5973 72.5336 58.0903 74.0919 57.2552C75.6503 56.4201 76.9979 55.2767 78.0419 53.9038C78.6195 53.1282 79.0911 52.2871 79.4456 51.4004C77.8952 51.2544 76.3121 50.9355 76.3121 50.9355Z" fill="#678EF4"/>
<path d="M58 62.1393C58 62.1577 57.9978 62.1758 57.9934 62.1927C57.9889 62.2097 57.9825 62.2251 57.9743 62.238C57.9661 62.251 57.9564 62.2612 57.9457 62.2682C57.935 62.2752 57.9235 62.2788 57.9119 62.2787H8.08806C8.06471 62.2787 8.04231 62.264 8.02579 62.2379C8.00928 62.2117 8 62.1763 8 62.1393C8 62.1024 8.00928 62.0669 8.02579 62.0408C8.04231 62.0147 8.06471 62 8.08806 62H57.9119C57.9235 61.9999 57.935 62.0035 57.9457 62.0105C57.9564 62.0175 57.9661 62.0277 57.9743 62.0407C57.9825 62.0536 57.9889 62.069 57.9934 62.086C57.9978 62.1029 58 62.121 58 62.1393Z" fill="#678EF4"/>
<path d="M34.6853 55.7232C49.4474 55.7232 61.4143 44.4514 61.4143 30.547C61.4143 16.6426 49.4474 5.37085 34.6853 5.37085C19.9233 5.37085 7.9563 16.6426 7.9563 30.547C7.9563 44.4514 19.9233 55.7232 34.6853 55.7232Z" fill="#678EF4"/>
<path d="M57.6846 30.547C57.6873 33.9273 56.849 37.2611 55.2368 40.2811C53.6247 43.3011 51.2837 45.9233 48.4015 47.9373C48.2088 48.0731 48.0124 48.2054 47.8147 48.3343C43.9606 50.8577 39.379 52.2102 34.6852 52.2102C29.9913 52.2102 25.4098 50.8577 21.5556 48.3343C21.358 48.2054 21.1615 48.0731 20.9688 47.9373C18.0886 45.9215 15.7491 43.299 14.1372 40.2794C12.5253 37.2597 11.6858 33.9268 11.6858 30.547C11.6858 27.1672 12.5253 23.8343 14.1372 20.8146C15.7491 17.795 18.0886 15.1725 20.9688 13.1567C21.1615 13.0209 21.358 12.8886 21.5556 12.7597C25.4098 10.2363 29.9913 8.88379 34.6852 8.88379C39.379 8.88379 43.9606 10.2363 47.8147 12.7597C48.0124 12.8886 48.2088 13.0209 48.4015 13.1567C51.2837 15.1707 53.6247 17.7929 55.2368 20.8129C56.849 23.8329 57.6873 27.1667 57.6846 30.547Z" fill="white"/>
<path d="M34.6853 50.3366C46.289 50.3366 55.6956 41.4765 55.6956 30.547C55.6956 19.6174 46.289 10.7573 34.6853 10.7573C23.0817 10.7573 13.675 19.6174 13.675 30.547C13.675 41.4765 23.0817 50.3366 34.6853 50.3366Z" fill="#AAC0F6"/>
<path opacity="0.2" d="M34.7402 10.8127C34.4217 10.8127 34.1051 10.8206 33.7901 10.8338C39.1003 11.2733 44.0346 13.5977 47.5933 17.336C51.152 21.0743 53.069 25.9469 52.9559 30.9668C52.8427 35.9866 50.708 40.7783 46.9841 44.371C43.2602 47.9637 38.2256 50.0888 32.9004 50.3156C33.5068 50.3652 34.1201 50.392 34.7402 50.392C40.3124 50.392 45.6565 48.307 49.5967 44.5958C53.5369 40.8845 55.7504 35.8509 55.7504 30.6024C55.7504 25.3538 53.5369 20.3203 49.5967 16.609C45.6565 12.8977 40.3124 10.8127 34.7402 10.8127Z" fill="black"/>
<path d="M34.7475 9.35205C34.5662 9.35235 34.3925 9.4203 34.2643 9.54102C34.1362 9.66173 34.064 9.82537 34.0637 9.99609V12.8065C34.0637 12.9773 34.1358 13.1411 34.264 13.2619C34.3922 13.3826 34.5661 13.4505 34.7475 13.4505C34.9288 13.4505 35.1028 13.3826 35.231 13.2619C35.3592 13.1411 35.4313 12.9773 35.4313 12.8065V9.99609C35.4309 9.82537 35.3588 9.66173 35.2306 9.54102C35.1025 9.4203 34.9287 9.35235 34.7475 9.35205Z" fill="white"/>
<path d="M48.4016 13.1566C48.2089 13.0208 48.0125 12.8885 47.8148 12.7597C47.6962 12.7524 47.5776 12.7744 47.4708 12.8234C47.3639 12.8725 47.2725 12.947 47.2056 13.0395L45.526 15.3616C45.424 15.5027 45.3857 15.6763 45.4195 15.8441C45.4533 16.0118 45.5565 16.1601 45.7063 16.2562C45.8562 16.3523 46.0404 16.3885 46.2185 16.3566C46.3967 16.3248 46.5541 16.2276 46.6561 16.0864L48.3357 13.7644C48.3996 13.6763 48.4391 13.5745 48.4506 13.4684C48.4621 13.3622 48.4453 13.2551 48.4016 13.1566Z" fill="white"/>
<path d="M56.0325 23.7449C55.9987 23.6666 55.9489 23.5953 55.8859 23.5352C55.8228 23.475 55.7479 23.4272 55.6652 23.3943C55.5825 23.3615 55.4938 23.3443 55.4041 23.3438C55.3144 23.3432 55.2254 23.3594 55.1423 23.3912L52.3774 24.4486C52.2096 24.513 52.0758 24.6375 52.0054 24.7948C51.935 24.9521 51.9337 25.1293 52.0019 25.2874C52.0702 25.4455 52.2022 25.5717 52.3691 25.6382C52.5361 25.7046 52.7242 25.706 52.8921 25.6419L55.657 24.5845C55.8248 24.5197 55.9585 24.395 56.0288 24.2377C56.0992 24.0803 56.1005 23.9031 56.0325 23.7449Z" fill="white"/>
<path d="M23.8446 15.3616L22.165 13.0395C22.0981 12.947 22.0067 12.8725 21.8999 12.8234C21.793 12.7744 21.6745 12.7524 21.5558 12.7597C21.3582 12.8885 21.1617 13.0208 20.969 13.1566C20.9254 13.2551 20.9085 13.3622 20.92 13.4684C20.9315 13.5745 20.971 13.6763 21.0349 13.7644L22.7145 16.0864C22.8166 16.2276 22.974 16.3248 23.1521 16.3566C23.3302 16.3885 23.5145 16.3523 23.6643 16.2562C23.8142 16.1601 23.9174 16.0119 23.9512 15.8441C23.985 15.6763 23.9466 15.5027 23.8446 15.3616Z" fill="white"/>
<path d="M16.9932 24.4485L14.2283 23.3911C14.0603 23.3268 13.8721 23.328 13.7051 23.3945C13.538 23.4609 13.4059 23.5871 13.3376 23.7453C13.2694 23.9035 13.2707 24.0808 13.3412 24.2381C13.4117 24.3955 13.5456 24.52 13.7136 24.5843L16.4785 25.6417C16.6464 25.7058 16.8345 25.7045 17.0015 25.638C17.1684 25.5715 17.3005 25.4454 17.3687 25.2872C17.4369 25.1291 17.4356 24.9519 17.3652 24.7946C17.2948 24.6374 17.161 24.5129 16.9932 24.4485Z" fill="white"/>
<path d="M34.7475 47.6433C34.5662 47.6436 34.3925 47.7116 34.2643 47.8323C34.1362 47.953 34.064 48.1166 34.0637 48.2874V51.0977C34.0637 51.2685 34.1358 51.4323 34.264 51.5531C34.3922 51.6739 34.5661 51.7418 34.7475 51.7418C34.9288 51.7418 35.1028 51.6739 35.231 51.5531C35.3592 51.4323 35.4313 51.2685 35.4313 51.0977V48.2874C35.4309 48.1166 35.3588 47.953 35.2306 47.8323C35.1025 47.7116 34.9287 47.6436 34.7475 47.6433Z" fill="white"/>
<path d="M48.3357 47.3296L46.6561 45.0075C46.6056 44.9377 46.5409 44.8778 46.4659 44.8315C46.3908 44.7851 46.3067 44.7531 46.2185 44.7374C46.1303 44.7216 46.0397 44.7224 45.9518 44.7396C45.8639 44.7568 45.7805 44.7902 45.7063 44.8378C45.6321 44.8853 45.5686 44.9462 45.5194 45.017C45.4701 45.0877 45.4362 45.1668 45.4195 45.2499C45.4027 45.333 45.4035 45.4183 45.4218 45.5011C45.4401 45.5839 45.4755 45.6625 45.526 45.7324L47.2056 48.0545C47.2725 48.147 47.3639 48.2215 47.4708 48.2705C47.5776 48.3196 47.6962 48.3416 47.8148 48.3343C48.0125 48.2055 48.2089 48.0732 48.4016 47.9374C48.4453 47.8389 48.4621 47.7317 48.4506 47.6256C48.4391 47.5195 48.3996 47.4177 48.3357 47.3296Z" fill="white"/>
<path d="M55.657 36.5097L52.8921 35.4523C52.7241 35.3881 52.5359 35.3893 52.3689 35.4558C52.2019 35.5222 52.0697 35.6484 52.0015 35.8066C51.9332 35.9648 51.9345 36.1421 52.005 36.2994C52.0755 36.4568 52.2094 36.5813 52.3774 36.6456L55.1423 37.703C55.3103 37.7671 55.4984 37.7657 55.6653 37.6993C55.8322 37.6328 55.9643 37.5067 56.0325 37.3485C56.1007 37.1904 56.0995 37.0132 56.0291 36.8559C55.9586 36.6986 55.8248 36.5741 55.657 36.5097Z" fill="white"/>
<path d="M23.6643 44.8377C23.5144 44.7416 23.3302 44.7055 23.1521 44.7374C22.974 44.7692 22.8166 44.8664 22.7145 45.0075L21.0349 47.3295C20.971 47.4176 20.9315 47.5194 20.92 47.6255C20.9085 47.7317 20.9254 47.8388 20.969 47.9373C21.1617 48.0731 21.3582 48.2054 21.5558 48.3343C21.6745 48.3415 21.793 48.3196 21.8999 48.2705C22.0067 48.2214 22.0981 48.1469 22.165 48.0544L23.8446 45.7323C23.8951 45.6624 23.9306 45.5839 23.9488 45.5011C23.9671 45.4183 23.9679 45.3329 23.9512 45.2498C23.9344 45.1668 23.9005 45.0876 23.8513 45.0169C23.8021 44.9462 23.7385 44.8853 23.6643 44.8377Z" fill="white"/>
<path d="M17.3687 35.8059C17.3349 35.7276 17.2851 35.6563 17.222 35.5962C17.159 35.536 17.084 35.4882 17.0014 35.4553C16.9187 35.4225 16.83 35.4053 16.7403 35.4048C16.6506 35.4043 16.5616 35.4204 16.4785 35.4523L13.7136 36.5097C13.5458 36.574 13.412 36.6986 13.3416 36.8558C13.2711 37.0131 13.2699 37.1903 13.3381 37.3484C13.4063 37.5066 13.5384 37.6327 13.7053 37.6992C13.8722 37.7657 14.0604 37.767 14.2283 37.7029L16.9932 36.6455C17.161 36.5808 17.2946 36.4561 17.365 36.2987C17.4354 36.1414 17.4367 35.9642 17.3687 35.8059Z" fill="white"/>
<path d="M35.6348 30.2275C35.6979 30.5796 35.6102 30.9408 35.3909 31.232C35.1716 31.5232 34.8387 31.7206 34.465 31.7809L22.3315 33.7249C22.1465 33.7545 21.957 33.7496 21.7739 33.7102C21.5909 33.6709 21.4178 33.598 21.2647 33.4957C21.1116 33.3934 20.9813 33.2637 20.8814 33.114C20.7815 32.9643 20.7138 32.7975 20.6824 32.6231C20.6509 32.4488 20.6562 32.2703 20.6979 32.0979C20.7396 31.9255 20.817 31.7625 20.9256 31.6183C21.0343 31.474 21.172 31.3513 21.3309 31.2572C21.4899 31.1631 21.667 31.0994 21.8521 31.0698L33.9856 29.1258C34.3593 29.0663 34.7428 29.1489 35.052 29.3554C35.3612 29.562 35.5708 29.8756 35.6348 30.2275Z" fill="white"/>
<path d="M48.4048 42.8895C48.2305 43.0546 47.9937 43.1478 47.7465 43.1487C47.4993 43.1497 47.2618 43.0582 47.0861 42.8944L34.0246 30.6881C33.8493 30.524 33.7504 30.3011 33.7495 30.0683C33.7487 29.8355 33.846 29.6119 34.02 29.4467C34.1941 29.2814 34.4307 29.188 34.6778 29.187C34.925 29.186 35.1624 29.2774 35.338 29.4412L48.3996 41.6475C48.5749 41.8116 48.6739 42.0346 48.6748 42.2674C48.6758 42.5003 48.5787 42.724 48.4048 42.8895Z" fill="white"/>
<path d="M34.6853 32.0692C35.5779 32.0692 36.3014 31.3877 36.3014 30.5469C36.3014 29.7062 35.5779 29.0247 34.6853 29.0247C33.7927 29.0247 33.0691 29.7062 33.0691 30.5469C33.0691 31.3877 33.7927 32.0692 34.6853 32.0692Z" fill="#678EF4"/>
<path d="M23.553 4.15045C21.0722 7.82412 17.2871 10.2621 12.619 11.8638C12.5268 11.9288 12.4219 11.9762 12.3102 12.003C12.1985 12.0299 12.0824 12.0358 11.9683 12.0204C11.8542 12.0049 11.7445 11.9685 11.6453 11.9131C11.5462 11.8578 11.4596 11.7846 11.3906 11.6977C8.85492 8.5088 9.42746 3.95125 12.774 1.51458C13.583 0.926497 14.5081 0.495651 15.4954 0.247054C16.4827 -0.00154385 17.5126 -0.0629417 18.5253 0.0664261C19.5379 0.195794 20.5133 0.513349 21.3946 1.00066C22.2759 1.48796 23.0457 2.13532 23.6593 2.90513L23.7294 2.99333C23.7985 3.08022 23.8487 3.17906 23.8772 3.28424C23.9058 3.38941 23.912 3.49884 23.8956 3.60629C23.8793 3.71374 23.8406 3.8171 23.7818 3.91046C23.723 4.00383 23.6453 4.08537 23.553 4.15045Z" fill="#678EF4"/>
<path d="M45.7114 2.90513C46.3249 2.13532 47.0947 1.48796 47.976 1.00066C48.8573 0.513348 49.8327 0.195794 50.8454 0.0664265C51.8581 -0.0629412 52.8879 -0.00154513 53.8752 0.247052C54.8625 0.495649 55.7876 0.926495 56.5966 1.51458C59.9432 3.95125 60.5157 8.5088 57.9801 11.6977C57.911 11.7846 57.8244 11.8578 57.7253 11.9131C57.6262 11.9685 57.5164 12.0049 57.4023 12.0204C57.2883 12.0358 57.1721 12.0299 57.0604 12.003C56.9488 11.9762 56.8438 11.9288 56.7516 11.8638C52.4181 10.301 48.8644 7.59676 45.8176 4.15044C45.6313 4.01902 45.508 3.82328 45.475 3.60628C45.4419 3.38928 45.5017 3.1688 45.6412 2.99333L45.7114 2.90513Z" fill="#678EF4"/>
<path d="M44.6238 52.3587C44.4658 52.4423 44.3494 52.5816 44.3002 52.7458C44.2509 52.9101 44.2728 53.0861 44.3611 53.2352L48.3072 59.8774C48.3958 60.0264 48.5436 60.1362 48.7181 60.1826C48.8926 60.229 49.0795 60.2082 49.2378 60.1248C49.396 60.0414 49.5126 59.9022 49.5619 59.7378C49.6112 59.5735 49.5891 59.3974 49.5006 59.2484L45.5544 52.6062C45.4656 52.4574 45.3179 52.3478 45.1434 52.3014C44.969 52.255 44.7822 52.2756 44.6238 52.3587Z" fill="#678EF4"/>
<path d="M23.8161 52.6063L19.87 59.2484C19.7814 59.3975 19.7594 59.5735 19.8087 59.7379C19.858 59.9022 19.9746 60.0414 20.1328 60.1248C20.291 60.2082 20.478 60.229 20.6525 60.1826C20.827 60.1362 20.9748 60.0264 21.0633 59.8774L25.0095 53.2353C25.0534 53.1615 25.0814 53.0803 25.0919 52.9963C25.1025 52.9122 25.0954 52.8271 25.071 52.7457C25.0466 52.6643 25.0054 52.5882 24.9498 52.5218C24.8942 52.4554 24.8252 52.3999 24.7468 52.3586C24.6684 52.3173 24.5822 52.291 24.493 52.281C24.4038 52.2711 24.3134 52.2779 24.227 52.3009C24.1406 52.3239 24.0598 52.3627 23.9893 52.4151C23.9188 52.4675 23.86 52.5324 23.8161 52.6063Z" fill="#678EF4"/>
<path d="M49.1066 61.578C50.2739 61.578 51.2201 60.6868 51.2201 59.5874C51.2201 58.4879 50.2739 57.5967 49.1066 57.5967C47.9394 57.5967 46.9932 58.4879 46.9932 59.5874C46.9932 60.6868 47.9394 61.578 49.1066 61.578Z" fill="#678EF4"/>
<path d="M50.5983 10.6403C51.7656 10.6403 52.7118 9.74903 52.7118 8.64961C52.7118 7.55019 51.7656 6.65894 50.5983 6.65894C49.4311 6.65894 48.4849 7.55019 48.4849 8.64961C48.4849 9.74903 49.4311 10.6403 50.5983 10.6403Z" fill="#678EF4"/>
<path d="M34.561 5.9562C35.7282 5.9562 36.6744 5.06495 36.6744 3.96553C36.6744 2.86611 35.7282 1.97485 34.561 1.97485C33.3937 1.97485 32.4475 2.86611 32.4475 3.96553C32.4475 5.06495 33.3937 5.9562 34.561 5.9562Z" fill="#678EF4"/>
<path d="M19.2695 10.4062C20.4367 10.4062 21.3829 9.5149 21.3829 8.41548C21.3829 7.31606 20.4367 6.4248 19.2695 6.4248C18.1022 6.4248 17.156 7.31606 17.156 8.41548C17.156 9.5149 18.1022 10.4062 19.2695 10.4062Z" fill="#678EF4"/>
<path d="M20.6369 61.578C21.8041 61.578 22.7504 60.6868 22.7504 59.5874C22.7504 58.4879 21.8041 57.5967 20.6369 57.5967C19.4697 57.5967 18.5234 58.4879 18.5234 59.5874C18.5234 60.6868 19.4697 61.578 20.6369 61.578Z" fill="#678EF4"/>
<path d="M47.4487 41.7697C47.532 41.8926 47.6429 41.9967 47.7736 42.0749C47.9042 42.153 48.0515 42.2032 48.205 42.2219C48.3585 42.2406 48.5145 42.2274 48.662 42.1832C48.8095 42.139 48.9449 42.0649 49.0587 41.966L52.375 43.6398L52.1971 41.8059L49.0752 40.4976C48.8862 40.3286 48.638 40.2307 48.3776 40.2225C48.1171 40.2143 47.8625 40.2964 47.6621 40.4532C47.4616 40.61 47.3291 40.8306 47.2898 41.0732C47.2505 41.3159 47.307 41.5637 47.4487 41.7697Z" fill="#FFB7B7"/>
<path d="M49.865 42.4099L51.1646 40.7202L57.4254 43.5079L65.2162 42.131C65.6013 42.063 65.9976 42.0756 66.3769 42.1681C66.7562 42.2605 67.1093 42.4304 67.4111 42.6659C67.7128 42.9013 67.9559 43.1964 68.1229 43.5302C68.29 43.864 68.377 44.2284 68.3777 44.5974C68.3783 45.264 68.098 45.9036 67.5985 46.3758C67.099 46.848 66.4211 47.1143 65.7134 47.1163L56.7851 47.1319L49.865 42.4099Z" fill="#3F3D56"/>
<path d="M47.8635 71.5939L46.5486 71.0016L48.3548 65.825L50.2954 66.6992L47.8635 71.5939Z" fill="#FFB7B7"/>
<path d="M56.6786 70.7593C56.583 70.8157 56.4874 70.8712 56.3908 70.9267C56.1986 71.0377 56.0045 71.1469 55.8103 71.2542C55.7128 71.3079 55.6143 71.3616 55.5167 71.4143V71.417L55.5109 71.4179L55.509 71.4189L55.3603 71.4534L55.1468 70.9222L55.0483 70.6775L54.9092 70.3309L54.6543 69.6968L53.3118 66.3582L55.3989 65.8733L55.4771 66.1744H55.4781L55.5167 66.3236L56.2459 69.1091L56.3947 69.6786L56.3995 69.6959L56.4893 70.0361L56.5666 70.3309L56.6525 70.6602L56.6786 70.7593Z" fill="#FFB7B7"/>
<path d="M69.1293 59.0348C68.9969 59.2349 68.8617 59.4341 68.7255 59.6316C68.4725 59.9991 68.2127 60.3611 67.9461 60.7177C67.9461 60.7187 67.9452 60.7186 67.9442 60.7196C67.7887 60.8553 67.6169 60.9734 67.4323 61.0716C67.4246 61.0771 67.4159 61.0807 67.4082 61.0853C67.2722 61.156 67.1276 61.2107 66.9774 61.2481C66.9233 61.2608 66.8683 61.2736 66.8142 61.2863C66.6191 61.33 66.4259 61.3673 66.2337 61.4C65.8918 61.4573 65.5538 61.4983 65.2177 61.5237C65.1906 61.5265 65.1636 61.5283 65.1366 61.5301C63.7545 61.6256 62.4091 61.4719 61.0048 61.2199C60.3113 61.0962 59.6034 60.9479 58.8703 60.7942C58.6308 60.7432 58.3903 60.6932 58.147 60.6431C58.1286 60.6395 58.1093 60.635 58.09 60.6313C57.7423 60.5595 57.3888 60.4885 57.0266 60.4184C56.5707 60.3302 56.1004 60.2447 55.6117 60.1637L55.6464 60.8124C55.6754 61.3113 55.7855 61.8031 55.9729 62.2706C56.1815 62.8455 56.3467 63.3004 55.998 64.2474L55.83 64.7059C55.9171 64.9336 55.947 65.1772 55.9173 65.4176C55.8876 65.6579 55.7992 65.8886 55.659 66.0914L55.6252 66.1396L57.0266 69.4791L57.1174 69.6956H56.3998L55.517 69.6965H54.021L51.8624 65.6174L51.759 65.4227V65.4127L51.9821 57.5738C51.985 57.5047 51.9908 57.4346 52.0005 57.3655C52.0398 57.0512 52.1452 56.7474 52.3106 56.4719C52.4759 56.1964 52.6978 55.9546 52.9634 55.7608C53.2179 55.5734 53.5094 55.4356 53.8209 55.3553C54.1325 55.2751 54.4579 55.2539 54.7782 55.2932L55.517 55.3832L57.0266 55.567L58.09 55.6971L58.1112 55.6998L61.2472 56.0819L61.4723 55.2177L61.5138 55.2031L62.8341 54.7473L67.4004 53.1708L67.412 53.1672L67.7124 53.0635L67.7481 53.1181C67.7588 53.1344 67.7694 53.1508 67.779 53.1672C68.0759 53.6685 68.3177 54.197 68.5005 54.7446C68.808 55.6391 69.0611 56.5494 69.2587 57.471C69.2674 57.511 69.2751 57.5474 69.2818 57.5802L69.2847 57.5902C69.2876 57.6056 69.2896 57.6156 69.2905 57.6184C69.3958 58.0314 69.3224 58.5354 69.1293 59.0348Z" fill="#2F2E41"/>
<path d="M69.3219 56.1459C69.3074 56.0877 69.289 56.0285 69.2697 55.9712C69.1164 55.5371 68.9377 55.1114 68.7346 54.6958C68.5067 54.2228 68.2334 53.716 67.9079 53.1675C67.7505 52.9019 67.5811 52.6256 67.3999 52.3388C67.3091 52.195 67.2148 52.0486 67.1169 51.8994C67.1131 51.8925 67.1089 51.8858 67.1043 51.8794L67.0763 51.8357L62.5582 52.4052L60.8758 52.6171L60.7753 53.4068L60.7512 53.6023C60.7502 53.6023 60.7502 53.6023 60.7512 53.6033L60.6836 54.1363V54.1373L60.5938 54.8414L60.5861 54.8405L58.0894 54.5357L55.5165 54.2219L54.1344 54.0536C53.8141 54.0142 53.4887 54.0353 53.1771 54.1156C52.8656 54.1959 52.5741 54.3337 52.3196 54.5212C52.0541 54.7151 51.8322 54.9568 51.6669 55.2323C51.5016 55.5078 51.3961 55.8116 51.3567 56.1259C51.348 56.1896 51.3422 56.255 51.3393 56.3196L50.0355 59.2298C49.2553 60.9702 48.7584 62.8116 48.5616 64.6917L47.6055 67.5709L47.7416 67.5827L49.7679 67.7601L50.303 67.8074L51.4813 66.1872C51.6155 66.0026 51.743 65.8124 51.8618 65.6178C52.0574 65.2998 52.2313 64.9704 52.3824 64.6316L54.9312 58.9187C55.1282 58.9505 55.3233 58.9808 55.5165 59.0096C56.4099 59.1461 57.2675 59.2574 58.0894 59.3435C60.7618 59.6246 63.0759 59.6464 65.136 59.4081C65.7145 59.3417 66.2737 59.2544 66.8136 59.1461C67.0116 59.107 67.2071 59.0648 67.3999 59.0197C67.4453 59.0096 67.4897 58.9996 67.5341 58.9887C67.9333 58.8918 68.3002 58.7021 68.6014 58.437C68.9026 58.1719 69.1284 57.8399 69.2581 57.4713C69.413 57.0443 69.4351 56.5844 69.3219 56.1459Z" fill="#2F2E41"/>
<path d="M48.2836 70.7486L46.861 70.1063L46.6379 70.0054L46.2815 70.8296L43.7935 71.3454C43.6705 71.3708 43.5593 71.4326 43.4763 71.5217C43.3932 71.6109 43.3425 71.7227 43.3318 71.8409C43.321 71.9591 43.3506 72.0774 43.4163 72.1786C43.482 72.2798 43.5803 72.3586 43.6969 72.4034L46.1279 73.3376L46.8996 72.6835L46.7103 73.5614L47.6259 73.9135L48.6294 70.9051L48.2836 70.7486Z" fill="#2F2E41"/>
<path d="M57.0264 69.4792L57.1172 69.6958H57.0264V69.4792Z" fill="#2F2E41"/>
<path d="M56.5309 69.742L55.0403 70.2285L54.8063 70.3046L55.1687 71.1264L53.7862 73.1418C53.7177 73.2414 53.6849 73.359 53.6925 73.4774C53.7 73.5958 53.7476 73.7088 53.8282 73.7999C53.9088 73.8911 54.0183 73.9555 54.1406 73.9839C54.2629 74.0122 54.3916 74.003 54.5079 73.9576L56.9332 73.0104L56.9929 72.0342L57.5142 72.7834L58.4278 72.4268L56.8935 69.624L56.5309 69.742Z" fill="#2F2E41"/>
<path d="M68.9501 57.464C68.8616 57.4639 68.7745 57.4435 68.6961 57.4047L60.8298 53.5331L60.7389 53.1826L60.5676 52.0735L60.57 52.0631L61.3181 48.8144C61.3044 48.7865 61.2757 48.7408 61.2434 48.6891C60.9094 48.1561 59.893 46.5339 61.8328 44.3002L65.2386 40.5601L68.1618 40.4417L68.195 40.4812C68.9766 41.4053 69.5038 42.4969 69.7296 43.659C69.9554 44.8212 69.8728 46.0179 69.4892 47.1428L69.1849 52.3205L69.5113 53.3662C69.7022 53.9806 69.6706 54.6375 69.4216 55.2332L69.4965 56.9263C69.4994 56.9957 69.4874 57.065 69.4613 57.1299C69.4352 57.1949 69.3955 57.2542 69.3445 57.3044C69.2935 57.3546 69.2323 57.3946 69.1645 57.422C69.0968 57.4494 69.0239 57.4637 68.9501 57.464Z" fill="#3F3D56"/>
<path d="M62.1267 61.7341C62.26 61.66 62.3743 61.5592 62.4618 61.4389C62.5492 61.3186 62.6076 61.1817 62.6328 61.0379C62.658 60.8941 62.6494 60.7468 62.6077 60.6064C62.5659 60.466 62.4919 60.336 62.391 60.2254L64.2823 57.1619L62.3302 57.2655L60.8335 60.1588C60.6476 60.3308 60.5351 60.561 60.5174 60.8059C60.4996 61.0508 60.5779 61.2933 60.7372 61.4875C60.8966 61.6817 61.1261 61.814 61.3822 61.8595C61.6383 61.905 61.9032 61.8603 62.1267 61.7341Z" fill="#FFB7B7"/>
<path d="M62.8897 59.4818L61.1421 58.1997L64.3177 52.4032L63.1278 45.0215C63.069 44.6566 63.0962 44.284 63.2074 43.9302C63.3187 43.5763 63.5113 43.2498 63.7716 42.974C64.0319 42.6981 64.3534 42.4796 64.7134 42.334C65.0735 42.1883 65.4631 42.1191 65.8547 42.1312C66.562 42.1539 67.2309 42.4399 67.7145 42.9266C68.1982 43.4132 68.4572 44.0606 68.4346 44.7269L68.1406 53.1319L62.8897 59.4818Z" fill="#3F3D56"/>
<path d="M63.3635 39.006V36.2815C63.3629 35.3133 63.7706 34.3845 64.497 33.6994C65.2234 33.0143 66.209 32.629 67.237 32.6284C68.265 32.6278 69.2511 33.0118 69.9784 33.6961C70.7058 34.3803 71.1148 35.3086 71.1154 36.2769V36.2815C71.7986 37.6224 71.3712 38.2599 71.1154 39.0061C71.1152 39.136 71.0603 39.2605 70.9628 39.3524C70.8652 39.4443 70.733 39.496 70.595 39.4962H63.8842C63.7462 39.4961 63.6139 39.4444 63.5163 39.3525C63.4187 39.2606 63.3638 39.136 63.3635 39.006Z" fill="#2F2E41"/>
<path d="M65.9687 39.319C67.571 39.319 68.87 38.0955 68.87 36.5863C68.87 35.077 67.571 33.8535 65.9687 33.8535C64.3663 33.8535 63.0674 35.077 63.0674 36.5863C63.0674 38.0955 64.3663 39.319 65.9687 39.319Z" fill="#FFB7B7"/>
<path d="M69.005 37.3027C68.9787 37.2988 68.9524 37.2935 68.9261 37.2896C68.4736 37.214 68.021 37.1397 67.5698 37.0628L67.5283 36.0995L66.9817 36.9624C65.7347 37.3522 64.568 37.1319 63.4705 36.6457C63.1085 36.4838 62.7573 36.3014 62.4187 36.0995C62.5109 35.5667 62.7284 35.0601 63.0552 34.6166C63.3821 34.1732 63.8101 33.8042 64.3078 33.5367C64.3494 33.5145 64.3895 33.495 64.431 33.4754L64.4315 33.4753L64.432 33.475L64.4323 33.4746L64.4324 33.4741C64.503 33.4428 64.5749 33.4128 64.6469 33.3855C65.2103 33.1781 65.8247 33.1255 66.4185 33.234C67.0124 33.3424 67.5613 33.6074 68.0016 33.9981C68.8874 34.7946 69.286 36.1099 69.005 37.3027Z" fill="#2F2E41"/>
</svg>
