<svg width="100" height="74" viewBox="0 0 100 74" fill="none" xmlns="http://www.w3.org/2000/svg">
<g clip-path="url(#clip0_315_158)">
<path d="M94.5189 74L94.6328 73.7878C93.1059 72.9552 91.2055 71.9192 90.2129 70.219C89.2344 68.543 89.2125 66.267 90.1556 64.2793C90.9582 62.5877 92.4326 61.0721 94.4193 59.8964C94.8112 59.6645 95.2225 59.4447 95.6204 59.2322C96.582 58.7184 97.5763 58.1871 98.3962 57.4334C99.5255 56.3953 100.38 54.6532 99.7431 53.1014C99.5336 52.6061 99.1906 52.1799 98.753 51.8713C98.3154 51.5626 97.8007 51.3838 97.2674 51.3552L97.2539 51.5963C97.7425 51.6224 98.214 51.7861 98.615 52.0687C99.016 52.3513 99.3304 52.7416 99.5225 53.1953C100.114 54.6373 99.3023 56.2737 98.2349 57.2551C97.4374 57.9882 96.4567 58.5121 95.5082 59.0189C95.1082 59.2326 94.6944 59.4537 94.298 59.6883C92.27 60.8884 90.7629 62.4399 89.9396 64.1751C88.9625 66.2343 88.9882 68.5971 90.0065 70.3415C91.0329 72.0996 92.9658 73.1534 94.5189 74Z" fill="#F1F1F1"/>
<path d="M95.7496 52.6276C96.9068 52.6276 97.8448 52.1682 97.8448 51.6016C97.8448 51.035 96.9068 50.5757 95.7496 50.5757C94.5924 50.5757 93.6543 51.035 93.6543 51.6016C93.6543 52.1682 94.5924 52.6276 95.7496 52.6276Z" fill="#F1F1F1"/>
<path d="M94.0733 59.3866C95.2305 59.3866 96.1686 58.9273 96.1686 58.3607C96.1686 57.794 95.2305 57.3347 94.0733 57.3347C92.9161 57.3347 91.978 57.794 91.978 58.3607C91.978 58.9273 92.9161 59.3866 94.0733 59.3866Z" fill="#F1F1F1"/>
<path d="M97.9048 60.4728C99.062 60.4728 100 60.0134 100 59.4468C100 58.8802 99.062 58.4209 97.9048 58.4209C96.7477 58.4209 95.8096 58.8802 95.8096 59.4468C95.8096 60.0134 96.7477 60.4728 97.9048 60.4728Z" fill="#F1F1F1"/>
<path d="M91.9183 66.1456C93.0755 66.1456 94.0135 65.6863 94.0135 65.1197C94.0135 64.5531 93.0755 64.0938 91.9183 64.0938C90.7611 64.0938 89.823 64.5531 89.823 65.1197C89.823 65.6863 90.7611 66.1456 91.9183 66.1456Z" fill="#F1F1F1"/>
<path d="M87.7276 66.1456C88.8848 66.1456 89.8229 65.6863 89.8229 65.1197C89.8229 64.5531 88.8848 64.0938 87.7276 64.0938C86.5704 64.0938 85.6323 64.5531 85.6323 65.1197C85.6323 65.6863 86.5704 66.1456 87.7276 66.1456Z" fill="#F1F1F1"/>
<path d="M16.4374 53.0449H9.00278C8.80146 53.0447 8.60845 52.9639 8.46609 52.8204C8.32373 52.677 8.24365 52.4824 8.24341 52.2794V27.5848C8.24365 27.3818 8.32373 27.1873 8.46609 27.0438C8.60845 26.9003 8.80146 26.8196 9.00278 26.8193H16.4374C16.6387 26.8196 16.8317 26.9003 16.9741 27.0438C17.1164 27.1873 17.1965 27.3818 17.1968 27.5848V52.2794C17.1965 52.4824 17.1164 52.677 16.9741 52.8204C16.8317 52.9639 16.6387 53.0447 16.4374 53.0449Z" fill="#AAC0F6"/>
<path d="M29.9952 53.045H22.5606C22.3593 53.0448 22.1663 52.964 22.024 52.8205C21.8816 52.677 21.8015 52.4825 21.8013 52.2795V17.7855C21.8015 17.5825 21.8816 17.388 22.024 17.2445C22.1663 17.101 22.3593 17.0202 22.5606 17.02H29.9952C30.1966 17.0202 30.3896 17.101 30.5319 17.2445C30.6743 17.388 30.7544 17.5825 30.7546 17.7855V52.2795C30.7544 52.4825 30.6743 52.677 30.5319 52.8205C30.3896 52.964 30.1966 53.0448 29.9952 53.045Z" fill="#678EF4"/>
<path d="M43.5531 53.0449H36.1185C35.9172 53.0447 35.7242 52.9639 35.5818 52.8204C35.4395 52.677 35.3594 52.4824 35.3591 52.2794V27.5848C35.3594 27.3818 35.4395 27.1873 35.5818 27.0438C35.7242 26.9003 35.9172 26.8196 36.1185 26.8193H43.5531C43.7544 26.8196 43.9474 26.9003 44.0898 27.0438C44.2322 27.1873 44.3122 27.3818 44.3125 27.5848V52.2794C44.3122 52.4824 44.2322 52.677 44.0898 52.8204C43.9474 52.9639 43.7544 53.0447 43.5531 53.0449Z" fill="#AAC0F6"/>
<path d="M57.111 53.0449H49.6764C49.4796 53.0492 49.2892 52.9747 49.1469 52.8377C49.0046 52.7007 48.9219 52.5125 48.917 52.3142V13.8826C48.9219 13.6843 49.0046 13.496 49.1469 13.359C49.2892 13.222 49.4796 13.1475 49.6764 13.1518H57.111C57.3077 13.1475 57.4981 13.222 57.6404 13.359C57.7828 13.496 57.8654 13.6843 57.8703 13.8826V52.3142C57.8654 52.5125 57.7828 52.7007 57.6404 52.8377C57.4981 52.9747 57.3077 53.0492 57.111 53.0449Z" fill="#678EF4"/>
<path d="M70.6691 53.0451H63.2345C63.0331 53.0449 62.8401 52.9642 62.6978 52.8207C62.5554 52.6772 62.4753 52.4826 62.4751 52.2797V6.95466C62.4753 6.75172 62.5554 6.55715 62.6978 6.41365C62.8401 6.27015 63.0331 6.18943 63.2345 6.18921H70.6691C70.8704 6.18943 71.0634 6.27015 71.2058 6.41365C71.3481 6.55715 71.4282 6.75172 71.4284 6.95466V52.2797C71.4282 52.4826 71.3481 52.6772 71.2058 52.8207C71.0634 52.9642 70.8704 53.0449 70.6691 53.0451Z" fill="#AAC0F6"/>
<path d="M12.7199 23.7249C13.5676 23.7249 14.2548 23.0322 14.2548 22.1776C14.2548 21.3231 13.5676 20.6304 12.7199 20.6304C11.8722 20.6304 11.1851 21.3231 11.1851 22.1776C11.1851 23.0322 11.8722 23.7249 12.7199 23.7249Z" fill="#3F3D56"/>
<path d="M26.2778 13.6675C27.1255 13.6675 27.8126 12.9748 27.8126 12.1203C27.8126 11.2657 27.1255 10.573 26.2778 10.573C25.4301 10.573 24.7429 11.2657 24.7429 12.1203C24.7429 12.9748 25.4301 13.6675 26.2778 13.6675Z" fill="#3F3D56"/>
<path d="M39.8359 23.7249C40.6836 23.7249 41.3707 23.0322 41.3707 22.1776C41.3707 21.3231 40.6836 20.6304 39.8359 20.6304C38.9882 20.6304 38.301 21.3231 38.301 22.1776C38.301 23.0322 38.9882 23.7249 39.8359 23.7249Z" fill="#3F3D56"/>
<path d="M53.3937 8.76789C54.2414 8.76789 54.9286 8.07515 54.9286 7.22062C54.9286 6.36608 54.2414 5.67334 53.3937 5.67334C52.5461 5.67334 51.8589 6.36608 51.8589 7.22062C51.8589 8.07515 52.5461 8.76789 53.3937 8.76789Z" fill="#3F3D56"/>
<path d="M66.9516 3.09455C67.7993 3.09455 68.4865 2.40181 68.4865 1.54728C68.4865 0.692739 67.7993 0 66.9516 0C66.1039 0 65.4167 0.692739 65.4167 1.54728C65.4167 2.40181 66.1039 3.09455 66.9516 3.09455Z" fill="#3F3D56"/>
<path d="M79.3809 53.3325H0.11973C0.0879756 53.3325 0.0575217 53.3197 0.035068 53.2971C0.0126143 53.2745 0 53.2438 0 53.2118C0 53.1798 0.0126143 53.1491 0.035068 53.1264C0.0575217 53.1038 0.0879756 53.0911 0.11973 53.0911H79.3809C79.4127 53.0911 79.4431 53.1038 79.4656 53.1264C79.4881 53.1491 79.5007 53.1798 79.5007 53.2118C79.5007 53.2438 79.4881 53.2745 79.4656 53.2971C79.4431 53.3197 79.4127 53.3325 79.3809 53.3325Z" fill="#CBCBCB"/>
<path d="M99.1363 73.9719H60.3439C60.3121 73.9719 60.2816 73.9591 60.2592 73.9365C60.2367 73.9139 60.2241 73.8832 60.2241 73.8512C60.2241 73.8192 60.2367 73.7885 60.2592 73.7658C60.2816 73.7432 60.3121 73.7305 60.3439 73.7305H99.1363C99.1681 73.7305 99.1986 73.7432 99.221 73.7658C99.2435 73.7885 99.2561 73.8192 99.2561 73.8512C99.2561 73.8832 99.2435 73.9139 99.221 73.9365C99.1986 73.9591 99.1681 73.9719 99.1363 73.9719Z" fill="#CBCBCB"/>
<path d="M74.2249 51.3705C74.3233 51.2718 74.3991 51.1527 74.447 51.0213C74.4948 50.8899 74.5134 50.7496 74.5016 50.6102C74.4898 50.4708 74.4478 50.3356 74.3786 50.2143C74.3094 50.0931 74.2146 49.9885 74.101 49.9082L74.5718 47.7731L73.3545 47.1682L72.7317 50.1928C72.6104 50.3942 72.5666 50.6334 72.6085 50.8651C72.6505 51.0969 72.7753 51.3051 72.9594 51.4502C73.1435 51.5954 73.3739 51.6675 73.6072 51.6528C73.8404 51.6381 74.0602 51.5376 74.2249 51.3705Z" fill="#FFB7B7"/>
<path d="M87.5369 51.4174C87.6274 51.3114 87.6939 51.1867 87.7315 51.052C87.769 50.9173 87.7769 50.7759 87.7544 50.6378C87.7319 50.4997 87.6797 50.3683 87.6014 50.2528C87.5231 50.1373 87.4206 50.0404 87.3012 49.9692L87.6066 47.8037L86.3465 47.2957L85.9578 50.3598C85.8523 50.57 85.827 50.8119 85.8866 51.0397C85.9462 51.2675 86.0867 51.4653 86.2813 51.5957C86.4759 51.726 86.7113 51.7799 86.9427 51.7471C87.1741 51.7142 87.3855 51.5969 87.5369 51.4174Z" fill="#FFB7B7"/>
<path d="M78.0474 72.6699L76.8061 72.6698L76.2156 67.843L78.0477 67.8431L78.0474 72.6699Z" fill="#FFB7B7"/>
<path d="M78.364 73.8829L74.3613 73.8828V73.8317C74.3614 73.4152 74.5255 73.0158 74.8177 72.7212C75.1098 72.4267 75.5061 72.2613 75.9193 72.2612L78.364 72.2613L78.364 73.8829Z" fill="#2F2E41"/>
<path d="M82.1988 72.6699L80.9575 72.6698L80.3669 67.843L82.1991 67.8431L82.1988 72.6699Z" fill="#FFB7B7"/>
<path d="M82.5153 73.8829L78.5127 73.8828V73.8317C78.5127 73.4152 78.6769 73.0158 78.969 72.7212C79.2612 72.4267 79.6574 72.2613 80.0706 72.2612L82.5154 72.2613L82.5153 73.8829Z" fill="#2F2E41"/>
<path d="M84.6983 32.0612L86.0368 31.5742C86.0368 31.5742 86.6049 31.6958 86.6049 33.249C86.6049 34.8022 88.1138 49.2877 88.1138 49.2877L85.4732 49.9886L83.9807 36.2455L84.6983 32.0612Z" fill="#2F2E41"/>
<path d="M75.7536 32.0612L74.4151 31.5742C74.4151 31.5742 73.847 31.6958 73.847 33.249C73.847 34.8022 72.3381 49.2877 72.3381 49.2877L74.9787 49.9886L76.4712 36.2455L75.7536 32.0612Z" fill="#2F2E41"/>
<path d="M75.7707 48.5819L75.4048 59.4631L76.2148 71.4996L78.302 71.5482L78.6057 60.3203L80.327 54.7063L80.1534 71.2531L82.5168 71.2246L83.9805 59.8406C83.9805 59.8406 85.9135 50.4192 84.8416 48.5819L79.9049 46.927L75.7707 48.5819Z" fill="#2F2E41"/>
<path d="M75.811 47.2709L75.6919 49.8885C75.6919 49.8885 77.3575 50.724 80.2852 50.2151C83.2129 49.7061 85.159 50.0416 85.159 50.0416L84.9342 46.7048L75.811 47.2709Z" fill="#E5E5E5"/>
<path d="M74.3618 31.6128L78.2116 29.9122L78.4412 29.0215L82.1863 29.1309L82.3481 30.0408L86.0367 31.5741L84.4116 37.2707L84.5783 41.2781L86.6048 48.5819C86.6048 48.5819 84.8955 50.0453 80.7887 49.4157L80.0801 47.9763L79.6467 49.4985C79.6467 49.4985 76.0455 50.834 75.0475 49.0955L75.7707 36.5373L74.3618 31.6128Z" fill="#2F2E41"/>
<path d="M80.2796 28.1849C81.6531 28.1849 82.7665 27.0625 82.7665 25.6779C82.7665 24.2933 81.6531 23.1709 80.2796 23.1709C78.9061 23.1709 77.7927 24.2933 77.7927 25.6779C77.7927 27.0625 78.9061 28.1849 80.2796 28.1849Z" fill="#FFB7B7"/>
<path d="M83.2345 24.7064C83.19 24.5024 83.1045 24.3097 82.9832 24.1403C82.9348 23.672 82.7798 23.2212 82.5303 22.8231C82.4325 22.6366 82.2937 22.4751 82.1245 22.351C81.9307 22.2385 81.7096 22.1829 81.4861 22.1905C81.4456 22.1899 81.3727 22.2023 81.3071 22.2053C81.2651 22.1922 81.2227 22.1805 81.1802 22.1695C81.1554 22.1139 81.1062 21.9518 81.0925 21.9628L80.9073 22.1111C80.829 22.0974 80.7502 22.0867 80.6712 22.0783C80.6424 21.9955 80.6137 21.9128 80.5849 21.8301C80.5382 21.9041 80.4973 21.9816 80.4625 22.062C80.3839 22.0581 80.3052 22.0567 80.2264 22.0579L80.069 21.9054C80.0597 21.9479 80.0383 21.9868 80.0075 22.0173C79.9766 22.0477 79.9376 22.0685 79.8953 22.0769C79.8228 22.0844 79.7507 22.0942 79.6787 22.1059C79.6729 22.1058 79.6669 22.1059 79.6612 22.1057C79.2735 22.096 78.8562 22.0784 78.532 22.293C78.3803 22.3981 78.2568 22.5394 78.1725 22.7043C78.1329 22.7315 78.093 22.7585 78.0545 22.7874C77.9244 22.8768 77.8117 22.9894 77.7219 23.1198C77.6566 23.2321 77.607 23.3531 77.5747 23.4792C77.451 23.8588 77.3936 24.2571 77.4053 24.6565C77.4185 25.0586 77.569 25.4437 77.8313 25.7469C77.9976 25.927 78.209 26.06 78.3756 26.2399C78.7184 26.6104 78.7827 27.127 79.076 27.519C79.3862 27.9335 79.9523 28.2064 80.4495 28.2845C80.7484 28.33 81.0533 28.3154 81.3466 28.2416C81.64 28.1679 81.9159 28.0364 82.1587 27.8548C82.2752 27.773 82.3742 27.6684 82.4497 27.5472C82.6223 27.2463 82.5491 26.8681 82.6132 26.5266C82.7333 25.8865 83.3393 25.3493 83.2345 24.7064Z" fill="#2F2E41"/>
<path d="M12.6381 22.2745L12.4951 22.0809L26.2779 11.7367L39.792 21.8983L53.491 6.90467L53.5155 6.89453L66.8104 1.36304L66.9017 1.58621L53.6313 7.10744L39.8218 22.2219L26.2778 12.0377L12.6381 22.2745Z" fill="#3F3D56"/>
</g>
<defs>
<clipPath id="clip0_315_158">
<rect width="100" height="74" fill="white"/>
</clipPath>
</defs>
</svg>
