<svg width="84" height="74" viewBox="0 0 84 74" fill="none" xmlns="http://www.w3.org/2000/svg">
<g clip-path="url(#clip0_315_194)">
<path d="M65.156 63.4129L66.2598 59.3494C68.4071 58.755 70.6683 58.6892 72.847 59.1578C69.3077 60.9258 68.6334 65.6879 65.8711 68.5053C65.0027 69.3775 63.9476 70.0448 62.7837 70.4577C61.6199 70.8707 60.3772 71.0187 59.1478 70.8909L56.3003 71.8603C56.3823 69.8837 56.8956 67.9483 57.8048 66.1873C58.714 64.4263 59.9975 62.8817 61.5668 61.6598C62.4541 60.983 63.4238 60.4196 64.4531 59.983C64.7017 61.6844 65.156 63.4129 65.156 63.4129Z" fill="#DBDBDB"/>
<path d="M13.5548 57.6351L11.6919 50.7769C8.0678 49.7737 4.25144 49.6627 0.574219 50.4535C6.54774 53.4375 7.68586 61.4748 12.348 66.2299C13.8135 67.702 15.5944 68.8282 17.5587 69.5252C19.523 70.2221 21.6203 70.472 23.6952 70.2562L28.5011 71.8923C28.3627 68.5563 27.4964 65.2898 25.9619 62.3177C24.4274 59.3456 22.2612 56.7386 19.6125 54.6764C18.115 53.534 16.4784 52.5832 14.7412 51.8463C14.3215 54.7179 13.5548 57.6351 13.5548 57.6351Z" fill="#DBDBDB"/>
<path d="M61.6633 15.5824V4.44564C61.6633 2.73615 60.9783 1.09668 59.7589 -0.112113C58.5395 -1.32091 56.8857 -2 55.1613 -2H31.3602C29.6357 -2 27.9819 -1.32091 26.7626 -0.112112C25.5432 1.09668 24.8582 2.73616 24.8582 4.44565V65.5428C24.8582 67.2523 25.5432 68.8917 26.7626 70.1005C27.9819 71.3093 29.6357 71.9884 31.3602 71.9884H55.1613C56.8857 71.9884 58.5395 71.3093 59.7589 70.1005C60.9783 68.8917 61.6633 67.2523 61.6633 65.5428V23.5097C61.7172 23.5097 61.7705 23.4992 61.8202 23.4788C61.87 23.4584 61.9152 23.4284 61.9533 23.3907C61.9914 23.3529 62.0216 23.3081 62.0422 23.2588C62.0628 23.2095 62.0734 23.1566 62.0734 23.1032V15.9889C62.0734 15.8811 62.0302 15.7777 61.9533 15.7015C61.8764 15.6252 61.7721 15.5824 61.6633 15.5824Z" fill="#3F3D56"/>
<path d="M60.2795 4.48978V65.4987C60.2797 66.7659 59.7754 67.982 58.8763 68.8828C57.9772 69.7836 56.7558 70.2963 55.4776 70.3095C55.4599 70.3113 55.4421 70.312 55.4244 70.3117H31.5075C30.2198 70.3116 28.985 69.8044 28.0745 68.9018C27.164 67.9993 26.6525 66.7751 26.6523 65.4987V4.48978C26.6525 3.21333 27.164 1.98918 28.0745 1.08659C28.985 0.183998 30.2198 -0.323124 31.5075 -0.323242H34.4099C34.2672 0.0241156 34.2129 0.400912 34.2516 0.773995C34.2903 1.14708 34.4209 1.50501 34.6319 1.8163C34.8429 2.1276 35.1279 2.38271 35.4617 2.55919C35.7955 2.73567 36.168 2.82811 36.5463 2.82837H50.1818C50.5598 2.82734 50.9318 2.73438 51.2651 2.55764C51.5984 2.3809 51.8829 2.12578 52.0936 1.81466C52.3043 1.50354 52.4347 1.14593 52.4735 0.773189C52.5123 0.400446 52.4583 0.0239615 52.3161 -0.323242H55.4244C56.712 -0.323126 57.9469 0.183996 58.8574 1.08659C59.7679 1.98918 60.2794 3.21332 60.2795 4.48978Z" fill="white"/>
<path d="M24.9898 21.8129C24.843 21.8128 24.7023 21.7549 24.5986 21.652C24.4948 21.5492 24.4365 21.4097 24.4363 21.2642V17.5332C24.4365 17.3878 24.4949 17.2485 24.5987 17.1458C24.7025 17.043 24.8431 16.9854 24.9898 16.9854C25.1364 16.9854 25.2771 17.043 25.3808 17.1458C25.4846 17.2485 25.543 17.3878 25.5432 17.5332V21.2643C25.5431 21.4097 25.4847 21.5492 25.3809 21.652C25.2772 21.7549 25.1365 21.8128 24.9898 21.8129Z" fill="#3F3D56"/>
<path d="M24.9151 16.5702C24.7683 16.5701 24.6276 16.5122 24.5239 16.4094C24.4201 16.3065 24.3617 16.167 24.3616 16.0216V12.2905C24.3618 12.1452 24.4202 12.0058 24.524 11.9031C24.6277 11.8004 24.7684 11.7427 24.9151 11.7427C25.0617 11.7427 25.2024 11.8004 25.3061 11.9031C25.4099 12.0058 25.4683 12.1452 25.4685 12.2905V16.0216C25.4684 16.167 25.41 16.3065 25.3062 16.4094C25.2025 16.5122 25.0618 16.5701 24.9151 16.5702Z" fill="#3F3D56"/>
<path d="M39.6377 2.30454C39.6379 2.15907 39.6962 2.01961 39.8 1.91675C39.9038 1.81389 40.0444 1.75603 40.1912 1.75586H43.9548C44.1015 1.75608 44.2421 1.81398 44.3457 1.91685C44.4493 2.01973 44.5075 2.15916 44.5075 2.30454C44.5075 2.44992 44.4493 2.58935 44.3457 2.69223C44.2421 2.7951 44.1015 2.853 43.9548 2.85322H40.1912C40.0444 2.85305 39.9038 2.79519 39.8 2.69233C39.6962 2.58947 39.6379 2.45001 39.6377 2.30454Z" fill="white"/>
<path d="M24.9898 28.1777C24.843 28.1775 24.7023 28.1196 24.5986 28.0168C24.4948 27.9139 24.4365 27.7745 24.4363 27.629V23.898C24.4365 23.7526 24.4949 23.6132 24.5987 23.5105C24.7025 23.4078 24.8431 23.3501 24.9898 23.3501C25.1364 23.3501 25.2771 23.4078 25.3808 23.5105C25.4846 23.6132 25.543 23.7526 25.5432 23.898V27.629C25.5431 27.7745 25.4847 27.9139 25.3809 28.0168C25.2772 28.1196 25.1365 28.1775 24.9898 28.1777Z" fill="#3F3D56"/>
<path d="M46.0581 2.85322C46.3638 2.85322 46.6116 2.60757 46.6116 2.30454C46.6116 2.00151 46.3638 1.75586 46.0581 1.75586C45.7524 1.75586 45.5046 2.00151 45.5046 2.30454C45.5046 2.60757 45.7524 2.85322 46.0581 2.85322Z" fill="white"/>
<path d="M40.8674 67.9455L42.3571 67.9454L43.0657 62.2495H40.8672L40.8674 67.9455Z" fill="#9E616A"/>
<path d="M40.5234 69.4637L40.9427 69.4637L42.5797 68.8037L43.4571 69.4636C43.9529 69.4636 44.4285 69.6589 44.7791 70.0064C45.1297 70.354 45.3267 70.8254 45.3267 71.3169V71.3771L40.5235 71.3773L40.5234 69.4637Z" fill="#2F2E41"/>
<path d="M47.7878 67.9455L49.2775 67.9454L49.9861 62.2495H47.7876L47.7878 67.9455Z" fill="#9E616A"/>
<path d="M47.4441 69.4637L47.8634 69.4637L49.5004 68.8037L50.3777 69.4636H50.3779C50.8737 69.4636 51.3492 69.6589 51.6998 70.0064C52.0504 70.354 52.2474 70.8254 52.2474 71.3169V71.3771L47.4442 71.3773L47.4441 69.4637Z" fill="#2F2E41"/>
<path d="M48.9786 36.7744L37.2747 37.0771L37.4782 42.727C37.4782 42.727 37.2747 44.2404 37.6818 44.6439C38.0888 45.0475 38.2924 45.0475 38.0888 45.7537C37.8853 46.46 38.9607 47.6134 38.8301 47.7429C38.6995 47.8724 38.3942 48.5787 38.3942 48.5787L39.4119 54.3295C39.4119 54.3295 40.1243 64.3177 40.3279 64.5195C40.5314 64.7212 40.735 64.5195 40.5314 65.0239C40.3279 65.5284 40.1243 65.3266 40.3279 65.5284C40.5082 65.7211 40.678 65.9232 40.8367 66.1337H43.2973C43.2973 66.1337 43.4828 65.1248 43.4828 65.0239C43.4828 64.923 43.6864 64.3177 43.6864 64.2168C43.6864 64.1159 43.5065 63.9376 43.5065 63.9376C43.4443 63.7325 43.4023 63.5219 43.3811 63.3088C43.3811 63.107 42.7704 55.3384 42.7704 55.3384L43.9917 45.2493L46.9431 55.1366C46.9431 55.1366 46.9431 63.8132 47.1467 64.015C47.3502 64.2168 47.3502 64.1159 47.2485 64.5195C47.1467 64.923 46.7396 64.8221 47.0449 65.1248C47.3502 65.4275 47.452 64.923 47.3502 65.4275L47.2485 65.9319L50.3017 65.9752C50.3017 65.9752 50.7088 65.1248 50.5052 64.8221C50.3017 64.5195 50.3139 64.6021 50.5622 64.1068C50.8105 63.6114 50.9123 63.5106 50.8105 63.4097C50.7088 63.3088 50.7088 62.7721 50.7088 62.7721L50.1999 53.1188C50.1999 53.1188 50.0981 42.9288 50.0981 42.6261C50.0905 42.4704 50.1194 42.315 50.1827 42.1722V41.7614L49.7928 40.3056L48.9786 36.7744Z" fill="#2F2E41"/>
<path d="M39.8581 18.5116C41.6005 18.5116 43.0131 17.1113 43.0131 15.384C43.0131 13.6566 41.6005 12.2563 39.8581 12.2563C38.1157 12.2563 36.7031 13.6566 36.7031 15.384C36.7031 17.1113 38.1157 18.5116 39.8581 18.5116Z" fill="#9E616A"/>
<path d="M38.4247 17.511L38.2971 17.4096C38.2946 17.4077 38.0523 17.217 37.8209 17.2504C37.7682 17.2591 37.7179 17.2788 37.6734 17.3082C37.6289 17.3376 37.5911 17.376 37.5627 17.4209C37.5465 17.4456 37.5232 17.465 37.4958 17.4765C37.4684 17.4881 37.4382 17.4913 37.409 17.4858C37.1088 17.4389 36.5668 16.5584 36.2938 15.674C36.1254 15.1286 35.9269 14.1403 36.4737 13.6136C36.516 13.3751 36.9522 11.2258 38.8696 11.166C40.8423 11.1038 42.1557 11.4988 42.4725 12.2474C42.5264 12.3747 42.5808 12.5246 42.6342 12.6929C42.6614 12.775 42.6647 12.8631 42.6435 12.9469C42.6224 13.0307 42.5777 13.1069 42.5147 13.1666C42.4576 13.2217 42.3875 13.2619 42.3108 13.2836C42.2341 13.3053 42.1532 13.3078 42.0753 13.2909C42.0657 13.3869 42.0403 13.4808 42.0001 13.5688C41.8277 13.9391 41.3939 14.1808 40.895 14.1846C40.5993 14.1803 40.3068 14.1243 40.0307 14.0192L40.8289 14.628L38.9214 14.3927L39.5463 14.7239L39.4211 14.7828C39.0326 14.9535 38.7122 15.247 38.5098 15.6174C38.3074 15.9877 38.2345 16.4142 38.3025 16.83L38.4247 17.511Z" fill="#2F2E41"/>
<path d="M48.4039 35.2795C48.8478 34.5196 48.425 33.4216 48.425 33.4216C48.425 33.4216 49.5735 31.7383 49.2917 31.0203L47.9393 20.6313C47.9393 20.6313 47.5165 19.5137 46.5301 18.955C46.2595 18.8017 44.8391 18.8619 44.5274 18.8645L43.5157 18.4356C43.4569 18.6484 42.3533 16.4306 42.3475 16.6512C41.6429 16.6512 41.1892 16.7476 40.0929 16.9306C38.1895 17.2486 39.1486 18.9535 39.2691 19.1548C39.2206 19.1579 39.1724 19.1645 39.1249 19.1746C38.8768 19.2207 38.0314 19.9457 38.0314 19.9457L36.5194 21.277C34.2408 23.0496 34.7509 25.8155 34.7509 25.8155L38.0736 29.1303L36.618 35.781C36.618 35.781 37.2366 36.7686 36.9168 37.2114C36.5969 37.6542 39.735 37.5271 39.735 37.5271C41.9008 38.484 49.5312 37.6752 49.5312 37.6752C49.4255 37.4014 48.4039 35.2795 48.4039 35.2795Z" fill="#E6E6E6"/>
<path d="M0.14585 72.29H83.8533C83.892 72.2899 83.9291 72.2746 83.9565 72.2474C83.9838 72.2202 83.9992 72.1834 83.9992 72.145C83.9992 72.1066 83.9838 72.0698 83.9565 72.0426C83.9291 72.0154 83.892 72.0001 83.8533 72H0.14585C0.107129 72.0001 0.0700348 72.0154 0.0426944 72.0426C0.015354 72.0698 0 72.1066 0 72.145C0 72.1834 0.015354 72.2202 0.0426944 72.2474C0.0700348 72.2746 0.107129 72.2899 0.14585 72.29Z" fill="#CACACA"/>
<path d="M55.0138 68.8226C55.0138 69.4547 54.9937 70.0814 54.9536 70.703C54.9361 70.705 54.9184 70.7058 54.9008 70.7054H30.9844C29.9023 70.7053 28.8512 70.347 27.998 69.6874C27.1447 69.0277 26.5381 68.1044 26.2744 67.064C26.2281 66.8824 26.1933 66.6982 26.1699 66.5123C26.1427 66.3068 26.1292 66.0998 26.1294 65.8925V38.7041C27.9697 38.7943 29.7978 39.0503 31.5913 39.4689C31.767 39.5091 31.9414 39.5517 32.1146 39.5956C32.1257 39.598 32.1367 39.6017 32.1478 39.6041C32.3235 39.6479 32.4979 39.6942 32.6711 39.7417C36.3684 40.7484 39.8391 42.4424 42.8984 44.7336C43.074 44.864 43.2485 44.9979 43.4217 45.1331L43.4549 45.1587C43.7448 45.3852 44.0302 45.6174 44.3111 45.8553C44.3738 45.9076 44.4364 45.9612 44.4979 46.016C44.649 46.1451 44.8001 46.2767 44.9475 46.4094C48.2098 49.3204 50.7995 52.8955 52.5396 56.8902C52.5973 57.0205 52.6526 57.152 52.7079 57.2835C52.73 57.3371 52.7521 57.3907 52.7742 57.4443C52.7951 57.493 52.8148 57.5417 52.8344 57.5904C54.2787 61.1619 55.0185 64.9748 55.0138 68.8226Z" fill="#3F3D56"/>
<path opacity="0.2" d="M43.9783 66.1186C43.9781 64.9794 44.2044 63.8513 44.6441 62.7988C45.0838 61.7463 45.7283 60.7899 46.5409 59.9844C47.3535 59.1788 48.3183 58.5398 49.38 58.1039C50.4417 57.6681 51.5797 57.4438 52.7289 57.4439H52.7743C52.7522 57.3903 52.7301 57.3368 52.708 57.2832C52.6527 57.1516 52.5974 57.0201 52.5397 56.8898H43.9783V46.0157H44.498C44.4365 45.9609 44.3739 45.9073 44.3112 45.8549C44.0299 45.6175 43.7445 45.3852 43.455 45.1583L43.4218 45.1328V45.4616H32.6712V39.7414C32.498 39.6939 32.3236 39.6476 32.1479 39.6037C32.1368 39.6013 32.1258 39.5977 32.1147 39.5952V45.4616H26.6528V46.0157H32.1147V56.8898H26.6528V57.4439H32.1147V66.1186H26.6934C26.7167 66.3045 26.7516 66.4887 26.7978 66.6703H32.1147V70.3117H32.6712V66.6703H43.4218V70.3117H43.9783V66.6703H53.3579V66.1186H43.9783ZM43.4218 66.1186H32.6712V57.4439H43.4218V66.1186ZM43.4218 56.8898H32.6712V56.673C32.6712 53.8465 33.8039 51.1358 35.82 49.1372C37.8361 47.1385 40.5706 46.0157 43.4218 46.0157V56.8898Z" fill="black"/>
<path d="M37.5172 42.6804C37.4067 42.5574 37.3247 42.4119 37.2771 42.2541C37.2295 42.0963 37.2173 41.9301 37.2415 41.7671C37.2657 41.6042 37.3256 41.4485 37.4171 41.3109C37.5085 41.1734 37.6293 41.0575 37.7708 40.9712L36.3374 35.3853L38.2972 36.1297L39.3863 41.4046C39.5167 41.6499 39.5517 41.9341 39.4848 42.2034C39.418 42.4727 39.2538 42.7082 39.0234 42.8655C38.793 43.0227 38.5124 43.0908 38.2348 43.0567C37.9572 43.0225 37.7019 42.8887 37.5172 42.6804Z" fill="#9E616A"/>
<path d="M34.8791 24.7534L34.7021 26.9841C34.7021 26.9841 34.482 29.4347 34.5396 29.8879C34.5973 30.341 34.7046 33.1084 34.7046 33.1084L36.57 36.7668L38.6837 36.208L38.5572 34.4918L38.6837 36.0683L38.9655 34.6714L38.261 32.2967L38.6837 31.4585L38.4705 28.645L34.8791 24.7534Z" fill="#E6E6E6"/>
<path d="M83.4842 39.8045C83.2353 39.5119 82.8822 39.3255 82.4983 39.2841C82.4438 39.2783 82.3889 39.2753 82.334 39.2753L54.0041 39.249C53.799 39.2483 53.596 39.2893 53.4075 39.3695C53.2191 39.4496 53.0492 39.5673 52.9084 39.7151C52.6372 40.0074 52.489 40.3914 52.4942 40.7885L52.4899 45.3506C52.4877 46.1772 52.6684 46.9942 53.0192 47.7441C52.8234 48.4799 52.4962 49.175 52.0531 49.7963C51.9153 49.9932 51.8362 50.2247 51.8251 50.4641C51.814 50.7035 51.8712 50.9411 51.9902 51.1497C52.1093 51.3583 52.2852 51.5294 52.498 51.6433C52.7107 51.7572 52.9515 51.8093 53.1927 51.7936C53.4913 51.7753 53.7888 51.7418 54.0839 51.6931C54.9428 51.5598 55.7624 51.2433 56.486 50.7656C57.0426 50.9393 57.6227 51.0278 58.2063 51.0281L78.1269 51.0465C78.8782 51.0492 79.6226 50.9038 80.3167 50.6188C81.0108 50.3337 81.6408 49.9147 82.17 49.3861C83.2484 48.2949 83.8476 46.8251 83.8367 45.2975L83.841 40.8194C83.8472 40.4499 83.7208 40.0901 83.4842 39.8045Z" fill="#AAC0F6"/>
<path d="M76.0822 43.3886L60.2482 43.374C60.203 43.3739 60.1582 43.3651 60.1164 43.3479C60.0746 43.3306 60.0367 43.3055 60.0047 43.2737C59.9728 43.242 59.9474 43.2043 59.9302 43.1628C59.9129 43.1214 59.904 43.077 59.9041 43.0321C59.9041 42.9873 59.913 42.9429 59.9304 42.9015C59.9478 42.86 59.9732 42.8224 60.0052 42.7907C60.0372 42.759 60.0752 42.7339 60.117 42.7168C60.1588 42.6997 60.2036 42.6909 60.2489 42.6909L76.0828 42.7056C76.1742 42.7057 76.2618 42.7417 76.3264 42.8058C76.3909 42.8699 76.4271 42.9568 76.427 43.0474C76.4269 43.138 76.3906 43.2248 76.3259 43.2888C76.2612 43.3528 76.1736 43.3887 76.0822 43.3886Z" fill="white"/>
<path d="M76.0802 45.4853L60.2463 45.4707C60.201 45.4706 60.1563 45.4617 60.1145 45.4445C60.0727 45.4273 60.0347 45.4021 60.0028 45.3704C59.9708 45.3386 59.9455 45.301 59.9282 45.2595C59.9109 45.2181 59.9021 45.1737 59.9021 45.1288C59.9021 45.084 59.9111 45.0396 59.9284 44.9981C59.9458 44.9567 59.9712 44.9191 60.0032 44.8874C60.0352 44.8557 60.0733 44.8306 60.1151 44.8135C60.1569 44.7963 60.2017 44.7876 60.2469 44.7876L76.0809 44.8023C76.1723 44.8023 76.2598 44.8384 76.3244 44.9025C76.3889 44.9666 76.4252 45.0535 76.4251 45.1441C76.425 45.2347 76.3886 45.3215 76.3239 45.3855C76.2593 45.4495 76.1716 45.4854 76.0802 45.4853Z" fill="white"/>
<path d="M62.0896 47.5685L60.2443 47.5668C60.1991 47.5668 60.1543 47.5579 60.1125 47.5407C60.0707 47.5235 60.0328 47.4983 60.0008 47.4666C59.9689 47.4348 59.9435 47.3972 59.9262 47.3557C59.909 47.3143 59.9001 47.2698 59.9001 47.225C59.9002 47.1801 59.9091 47.1357 59.9265 47.0943C59.9438 47.0529 59.9693 47.0153 60.0013 46.9836C60.0333 46.9519 60.0713 46.9268 60.1131 46.9097C60.1549 46.8925 60.1997 46.8837 60.245 46.8838L62.0902 46.8855C62.1815 46.8857 62.2689 46.9219 62.3333 46.986C62.3978 47.05 62.4339 47.1369 62.4338 47.2273C62.4337 47.3178 62.3974 47.4046 62.3329 47.4685C62.2683 47.5325 62.1808 47.5685 62.0896 47.5685Z" fill="white"/>
<path d="M0.356977 22.1458C0.605891 21.8532 0.958944 21.6668 1.34282 21.6254C1.39741 21.6196 1.45227 21.6166 1.50717 21.6166L29.8371 21.5903C30.0421 21.5896 30.2452 21.6306 30.4336 21.7108C30.6221 21.7909 30.792 21.9086 30.9327 22.0564C31.204 22.3487 31.3522 22.7327 31.347 23.1298L31.3513 27.6919C31.3535 28.5185 31.1728 29.3355 30.8219 30.0854C31.0177 30.8212 31.3449 31.5163 31.788 32.1377C31.9259 32.3345 32.005 32.566 32.0161 32.8054C32.0272 33.0448 31.97 33.2824 31.8509 33.4911C31.7319 33.6997 31.5559 33.8707 31.3432 33.9846C31.1305 34.0985 30.8897 34.1506 30.6485 34.1349C30.3498 34.1166 30.0524 34.0831 29.7573 34.0344C28.8983 33.9011 28.0788 33.5846 27.3552 33.1069C26.7986 33.2806 26.2184 33.3691 25.6349 33.3694L5.71424 33.3878C4.96294 33.3905 4.2186 33.2451 3.5245 32.9601C2.8304 32.675 2.2004 32.256 1.67115 31.7274C0.59277 30.6362 -0.0063902 29.1664 0.00444795 27.6388L0.000222751 23.1607C-0.00605145 22.7912 0.120396 22.4315 0.356977 22.1458Z" fill="#678EF4"/>
<path d="M7.41431 25.3887C7.41433 25.2982 7.45058 25.2113 7.5151 25.1473C7.57963 25.0832 7.66716 25.0471 7.7585 25.0469L23.5925 25.0322C23.6838 25.0321 23.7715 25.068 23.8362 25.132C23.9008 25.196 23.9372 25.2829 23.9373 25.3734C23.9374 25.464 23.9012 25.5509 23.8366 25.615C23.7721 25.6791 23.6845 25.7152 23.5931 25.7153L7.75914 25.7299C7.66781 25.7299 7.58021 25.694 7.51557 25.63C7.45092 25.566 7.4145 25.4793 7.41431 25.3887Z" fill="white"/>
<path d="M7.41626 27.4854C7.41628 27.3949 7.45253 27.308 7.51706 27.2439C7.58158 27.1799 7.66911 27.1438 7.76045 27.1436L23.5944 27.1289C23.6858 27.1288 23.7734 27.1647 23.8381 27.2287C23.9028 27.2927 23.9391 27.3795 23.9392 27.4701C23.9393 27.5607 23.9031 27.6476 23.8386 27.7117C23.774 27.7758 23.6864 27.8119 23.595 27.812L7.76109 27.8266C7.66976 27.8266 7.58216 27.7906 7.51751 27.7267C7.45287 27.6627 7.41646 27.576 7.41626 27.4854Z" fill="white"/>
<path d="M21.407 29.5687C21.407 29.4781 21.4433 29.3913 21.5078 29.3272C21.5723 29.2631 21.6598 29.227 21.7512 29.2268L23.5964 29.2251C23.6878 29.225 23.7754 29.2609 23.8401 29.3249C23.9048 29.3889 23.9411 29.4757 23.9412 29.5663C23.9413 29.6569 23.9051 29.7438 23.8405 29.8079C23.776 29.872 23.6884 29.9081 23.597 29.9082L21.7518 29.9099C21.6605 29.9098 21.5729 29.8739 21.5082 29.8099C21.4436 29.746 21.4072 29.6592 21.407 29.5687Z" fill="white"/>
<path d="M57.4173 11.586C57.2595 11.6644 57.1209 11.7761 57.0113 11.9134C56.9017 12.0506 56.8238 12.21 56.7831 12.3803C56.7423 12.5506 56.7398 12.7276 56.7755 12.899C56.8113 13.0704 56.8845 13.2319 56.9901 13.3722L54.5813 16.8933L56.8112 16.9219L58.7568 13.5739C58.9828 13.3825 59.1301 13.1155 59.1708 12.8236C59.2116 12.5317 59.1428 12.2352 58.9777 11.9901C58.8126 11.7451 58.5626 11.5686 58.275 11.4942C57.9874 11.4197 57.6822 11.4524 57.4173 11.586Z" fill="#9E616A"/>
<path d="M58.1821 14.9067L54.4712 21.671L54.4382 21.6732C54.4109 21.675 53.2303 21.7524 51.7883 21.83C51.545 21.8431 51.4018 22.2708 51.148 22.2835C50.9731 22.2923 50.328 23.0962 50.1515 23.1045C48.5798 23.1786 47.6783 23.8906 47.0803 23.8352C46.2696 23.7683 45.1898 21.5577 44.6009 21.0015L44.5871 20.987L44.585 20.9671C44.5438 20.5614 44.6433 20.154 44.867 19.8119C45.0907 19.4698 45.4254 19.2135 45.8158 19.0852C47.7039 18.4759 49.7091 18.31 51.673 18.6006L52.7899 18.7672L56.1804 14.2529L58.1821 14.9067Z" fill="#E6E6E6"/>
<path d="M78.2379 3.80793C77.9889 3.51528 77.6359 3.32891 77.252 3.28754C77.1974 3.28168 77.1426 3.27872 77.0877 3.27867L48.7578 3.25245C48.5527 3.25173 48.3496 3.29272 48.1612 3.37289C47.9727 3.45306 47.8029 3.5707 47.6621 3.71854C47.3909 4.01078 47.2427 4.39481 47.2479 4.7919L47.2436 9.35402C47.2414 10.1806 47.4221 10.9976 47.7729 11.7475C47.5771 12.4833 47.2499 13.1784 46.8068 13.7998C46.6689 13.9966 46.5899 14.2281 46.5788 14.4675C46.5676 14.7069 46.6249 14.9446 46.7439 15.1532C46.8629 15.3618 47.0389 15.5328 47.2516 15.6467C47.4643 15.7606 47.7051 15.8127 47.9464 15.797C48.245 15.7787 48.5424 15.7452 48.8376 15.6965C49.6965 15.5632 50.516 15.2467 51.2396 14.769C51.7963 14.9427 52.3764 15.0312 52.96 15.0315L72.8806 15.0499C73.6319 15.0526 74.3762 14.9072 75.0703 14.6222C75.7644 14.3371 76.3944 13.9181 76.9237 13.3895C78.0021 12.2983 78.6012 10.8285 78.5904 9.3009L78.5946 4.8228C78.6009 4.45327 78.4744 4.09356 78.2379 3.80793Z" fill="#AAC0F6"/>
<path d="M70.8359 7.39204L55.0019 7.37738C54.9567 7.37734 54.9119 7.36847 54.8701 7.35127C54.8283 7.33406 54.7904 7.30887 54.7584 7.27713C54.7264 7.24539 54.7011 7.20771 54.6838 7.16626C54.6665 7.12481 54.6577 7.08039 54.6577 7.03554C54.6578 6.99069 54.6667 6.94629 54.6841 6.90487C54.7014 6.86345 54.7268 6.82582 54.7588 6.79414C54.7909 6.76246 54.8289 6.73734 54.8707 6.72021C54.9125 6.70309 54.9573 6.69429 55.0025 6.69434L70.8365 6.70899C70.9279 6.70908 71.0155 6.74514 71.08 6.80925C71.1446 6.87335 71.1808 6.96026 71.1807 7.05083C71.1806 7.14141 71.1442 7.22825 71.0796 7.29223C71.0149 7.35622 70.9272 7.39212 70.8359 7.39204Z" fill="white"/>
<path d="M70.8339 9.48823L54.9999 9.47358C54.9086 9.47349 54.821 9.43743 54.7564 9.37332C54.6919 9.30921 54.6557 9.22231 54.6558 9.13173C54.6558 9.04116 54.6922 8.95432 54.7569 8.89033C54.8216 8.82635 54.9092 8.79044 55.0006 8.79053L70.8345 8.80518C70.9259 8.80527 71.0135 8.84133 71.0781 8.90544C71.1426 8.96955 71.1788 9.05645 71.1787 9.14703C71.1787 9.2376 71.1423 9.32444 71.0776 9.38843C71.0129 9.45242 70.9253 9.48832 70.8339 9.48823Z" fill="white"/>
<path d="M56.8432 11.572L54.998 11.5703C54.9528 11.5702 54.908 11.5613 54.8662 11.5441C54.8244 11.5269 54.7864 11.5017 54.7545 11.47C54.7225 11.4383 54.6972 11.4006 54.6799 11.3591C54.6626 11.3177 54.6538 11.2733 54.6538 11.2284C54.6539 11.1836 54.6628 11.1392 54.6802 11.0977C54.6975 11.0563 54.7229 11.0187 54.7549 10.987C54.787 10.9553 54.825 10.9302 54.8668 10.9131C54.9086 10.896 54.9534 10.8872 54.9986 10.8872L56.8439 10.8889C56.9351 10.8891 57.0226 10.9253 57.087 10.9894C57.1514 11.0535 57.1876 11.1403 57.1875 11.2308C57.1874 11.3212 57.1511 11.408 57.0866 11.472C57.022 11.5359 56.9345 11.5719 56.8432 11.572Z" fill="white"/>
</g>
<defs>
<clipPath id="clip0_315_194">
<rect width="84" height="74" fill="white"/>
</clipPath>
</defs>
</svg>
