<svg width="123" height="103" viewBox="0 0 123 103" fill="none" xmlns="http://www.w3.org/2000/svg">
<g clip-path="url(#clip0_315_233)">
<path d="M16.1351 15.1724H6.75008C6.5401 15.1721 6.33882 15.0885 6.19045 14.9399C6.04207 14.7913 5.95874 14.5899 5.95874 14.38C5.95874 14.17 6.04207 13.9686 6.19045 13.82C6.33882 13.6714 6.5401 13.5878 6.75008 13.5875H16.1351C17.1571 13.5732 17.1673 15.1868 16.1351 15.1724Z" fill="white"/>
<path d="M44.2098 15.1724H34.8248C34.6148 15.1721 34.4135 15.0885 34.2652 14.9399C34.1168 14.7913 34.0334 14.5899 34.0334 14.38C34.0334 14.17 34.1168 13.9686 34.2652 13.82C34.4135 13.6714 34.6148 13.5878 34.8248 13.5875H44.2098C45.2318 13.5732 45.2421 15.1868 44.2098 15.1724Z" fill="white"/>
<path d="M72.2848 15.1724H62.8997C62.6898 15.1721 62.4885 15.0885 62.3401 14.9399C62.1917 14.7913 62.1084 14.5899 62.1084 14.38C62.1084 14.17 62.1917 13.9686 62.3401 13.82C62.4885 13.6714 62.6898 13.5878 62.8997 13.5875H72.2848C73.3068 13.5732 73.317 15.1868 72.2848 15.1724Z" fill="white"/>
<path d="M84.2618 12.1255H83.9194V16.5761H84.2618V12.1255Z" fill="white"/>
<path d="M48.8335 77.9962H8.59525C8.23671 77.9958 7.89299 77.8532 7.63947 77.5997C7.38595 77.3462 7.24333 77.0025 7.24292 76.644V70.7512C7.24333 70.3927 7.38595 70.0489 7.63947 69.7954C7.89299 69.5419 8.23671 69.3993 8.59525 69.3989H48.8335C49.192 69.3993 49.5357 69.5419 49.7892 69.7954C50.0428 70.0489 50.1854 70.3927 50.1858 70.7512V76.644C50.1854 77.0025 50.0428 77.3462 49.7892 77.5997C49.5357 77.8532 49.192 77.9958 48.8335 77.9962Z" fill="#F0F0F0"/>
<path d="M44.9241 77.0844H9.50784C9.14931 77.084 8.80558 76.9413 8.55206 76.6878C8.29854 76.4343 8.15593 76.0906 8.15552 75.7321V71.6642C8.15593 71.3057 8.29854 70.962 8.55206 70.7085C8.80558 70.455 9.14931 70.3124 9.50784 70.312H47.9215C48.2801 70.3124 48.6238 70.455 48.8773 70.7085C49.1308 70.962 49.2734 71.3057 49.2739 71.6642V72.7349C49.2726 73.888 48.8139 74.9936 47.9984 75.809C47.1829 76.6244 46.0773 77.0831 44.9241 77.0844Z" fill="white"/>
<path d="M32.7075 73.2785H16.5348C16.4423 73.2785 16.3536 73.2418 16.2882 73.1764C16.2228 73.111 16.186 73.0223 16.186 72.9298C16.186 72.8373 16.2228 72.7486 16.2882 72.6832C16.3536 72.6178 16.4423 72.5811 16.5348 72.5811H32.7075C32.8 72.5811 32.8887 72.6178 32.9541 72.6832C33.0195 72.7486 33.0563 72.8373 33.0563 72.9298C33.0563 73.0223 33.0195 73.111 32.9541 73.1764C32.8887 73.2418 32.8 73.2785 32.7075 73.2785Z" fill="#E6E6E6"/>
<path d="M40.8942 74.7048H16.5346C16.4887 74.7049 16.4433 74.696 16.4009 74.6785C16.3585 74.661 16.3199 74.6353 16.2875 74.6029C16.255 74.5705 16.2293 74.5321 16.2117 74.4897C16.1941 74.4473 16.1851 74.4019 16.1851 74.3561C16.1851 74.3102 16.1941 74.2648 16.2117 74.2224C16.2293 74.1801 16.255 74.1416 16.2875 74.1092C16.3199 74.0768 16.3585 74.0511 16.4009 74.0337C16.4433 74.0162 16.4887 74.0072 16.5346 74.0073H40.8942C40.9866 74.0075 41.0751 74.0444 41.1403 74.1097C41.2056 74.1751 41.2422 74.2637 41.2422 74.3561C41.2422 74.4484 41.2056 74.537 41.1403 74.6024C41.0751 74.6678 40.9866 74.7046 40.8942 74.7048Z" fill="#E6E6E6"/>
<path d="M51.404 62.6567H5.52393C5.15783 62.6562 4.80684 62.5106 4.54797 62.2518C4.2891 61.9929 4.14348 61.642 4.14307 61.2759V26.2074C4.14349 25.8413 4.2891 25.4904 4.54798 25.2315C4.80685 24.9727 5.15783 24.8271 5.52393 24.8267H51.404C51.7701 24.8271 52.1211 24.9727 52.38 25.2315C52.6388 25.4904 52.7844 25.8413 52.7849 26.2074V61.2759C52.7844 61.642 52.6388 61.9929 52.38 62.2518C52.1211 62.5106 51.7701 62.6562 51.404 62.6567Z" fill="white"/>
<path d="M51.404 62.8281H5.52398C5.1125 62.8276 4.71801 62.664 4.42704 62.373C4.13608 62.0821 3.9724 61.6876 3.97192 61.2762V26.2076C3.9724 25.7962 4.13608 25.4017 4.42705 25.1108C4.71801 24.8199 5.11251 24.6562 5.52398 24.6558H51.404C51.8155 24.6562 52.21 24.8199 52.5009 25.1108C52.7919 25.4017 52.9556 25.7962 52.956 26.2076V61.2762C52.9556 61.6876 52.7919 62.0821 52.5009 62.373C52.21 62.664 51.8155 62.8276 51.404 62.8281ZM5.52398 24.9981C5.20328 24.9985 4.89581 25.126 4.66903 25.3528C4.44225 25.5795 4.31468 25.887 4.3143 26.2076V61.2762C4.31466 61.5969 4.44222 61.9043 4.669 62.1311C4.89579 62.3578 5.20326 62.4854 5.52398 62.4858H51.404C51.7247 62.4854 52.0322 62.3578 52.259 62.1311C52.4858 61.9043 52.6133 61.5969 52.6137 61.2762V26.2076C52.6133 25.887 52.4857 25.5795 52.2589 25.3528C52.0322 25.126 51.7247 24.9985 51.404 24.9981L5.52398 24.9981Z" fill="#DEDEDE"/>
<path d="M4.24902 55.981V61.2761C4.24953 61.614 4.38401 61.938 4.62298 62.1769C4.86195 62.4159 5.18593 62.5504 5.52389 62.5509H51.404C51.742 62.5504 52.066 62.4159 52.3049 62.1769C52.5439 61.938 52.6784 61.614 52.6789 61.2761V55.981H4.24902Z" fill="#DEDEDE"/>
<path d="M4.6814 25.0501L4.49683 25.3384L52.5866 56.1249L52.7712 55.8367L4.6814 25.0501Z" fill="#DEDEDE"/>
<path d="M52.7224 25.0504L4.63257 55.8369L4.81714 56.1252L52.9069 25.3386L52.7224 25.0504Z" fill="#DEDEDE"/>
<path d="M93.3597 100.616L91.2386 100.615L90.2295 92.4351L93.36 92.4352L93.3597 100.616Z" fill="#A0616A"/>
<path d="M93.303 99.9222L91.0399 99.003L90.9732 98.9756L89.7235 99.9222C89.0377 99.9221 88.3784 100.187 87.883 100.661C87.3877 101.135 87.0946 101.782 87.0649 102.468C87.0615 102.505 87.0615 102.545 87.0615 102.584V102.671H93.9005V99.9222H93.303Z" fill="#2F2E41"/>
<path d="M88.3924 98.6416L86.3916 99.3455L82.7244 91.9635L85.6774 90.9248L88.3924 98.6416Z" fill="#A0616A"/>
<path d="M88.1091 98.0069L85.6692 97.8909L85.5971 97.8872L84.7325 99.1949C84.0856 99.4224 83.5515 99.8909 83.2416 100.503C82.9318 101.114 82.8701 101.822 83.0696 102.478C83.0788 102.515 83.0919 102.552 83.105 102.589L83.1339 102.672L89.5852 100.402L88.6727 97.8086L88.1091 98.0069Z" fill="#2F2E41"/>
<path d="M94.1091 65.343C96.0495 65.2677 93.6458 80.73 93.6458 80.73C93.6458 80.73 94.349 94.3052 94.1999 95.0176C94.0509 95.73 94.1811 97.6514 94.1811 97.6514C93.801 96.9595 89.8788 97.4817 89.8788 97.4817L89.3452 83.7232L86.621 72.6995L82.8443 80.0889L86.4641 91.4312C86.4641 91.4312 87.9301 92.7875 87.7742 93.3236C87.6183 93.8596 83.7785 95.0684 83.0729 95.0957C82.3673 95.1231 82.6859 94.2275 82.6517 93.3455C82.6175 92.4636 79.2971 84.2895 78.1293 81.5083C76.9614 78.7271 77.8693 74.8055 78.4655 71.9558C79.0616 69.1062 82.198 63.7584 82.198 63.7584C86.0911 59.3678 92.1687 65.4182 94.1091 65.343Z" fill="#2E68FF"/>
<path d="M70.4618 52.8474C70.5681 53.0505 70.7176 53.2278 70.8999 53.3668C71.0821 53.5058 71.2926 53.6032 71.5165 53.6521C71.7404 53.701 71.9724 53.7002 72.196 53.6498C72.4195 53.5993 72.6294 53.5005 72.8106 53.3602L77.4769 56.4044L77.4627 53.5093L73.0337 51.0623C72.7778 50.7735 72.4248 50.5885 72.0417 50.5425C71.6585 50.4965 71.2718 50.5926 70.9548 50.8126C70.6378 51.0327 70.4125 51.3613 70.3217 51.7364C70.2308 52.1114 70.2807 52.5067 70.4618 52.8474Z" fill="#A0616A"/>
<path d="M93.1013 67.8219C88.2892 67.822 85.6374 66.8588 84.2292 65.9988C82.5073 64.9471 82.2126 63.8382 82.2009 63.7914L82.1975 63.778L82.3651 61.669L82.4384 61.5049C82.7762 60.7489 82.821 59.8944 82.5641 59.1072L82.5589 59.091L82.5602 59.0741L83.6854 44.4823L87.6672 43.1781L88.8255 42.0143L93.983 41.9395L94.7016 43.3962L98.7675 44.9268L96.7699 56.8161L95.8124 58.4665L96.1977 60.2644L96.195 60.2806L94.9388 67.7781L94.8697 67.7811C94.2501 67.8088 93.6606 67.8224 93.1013 67.8219Z" fill="#678EF4"/>
<path d="M80.6523 58.7182L78.7644 57.599L78.6462 57.4282C78.4058 57.0824 78.0878 56.7978 77.7175 56.5972C77.3472 56.3966 76.9351 56.2856 76.5142 56.2731L76.4922 56.2724L73.8921 54.7439L74.9699 51.5868L79.0459 52.7909L81.8875 45.7308C82.0436 45.343 82.3041 45.0062 82.6402 44.7577C82.9763 44.5092 83.3748 44.3587 83.7912 44.3231C84.2077 44.2876 84.6259 44.3682 84.9993 44.5561C85.3727 44.7439 85.6867 45.0317 85.9062 45.3873C86.1312 45.7591 86.2479 46.1862 86.243 46.6207V51.2403L86.226 51.2632L80.6523 58.7182Z" fill="#678EF4"/>
<path d="M93.2735 65.1065C93.3139 64.8809 93.4032 64.6669 93.5353 64.4795C93.6673 64.2922 93.8388 64.136 94.0377 64.0221C94.2366 63.9082 94.4581 63.8393 94.6865 63.8203C94.9149 63.8012 95.1447 63.8325 95.3597 63.9118L98.8958 59.6064L99.7521 62.372L96.2629 66.0365C96.1056 66.3889 95.8246 66.6713 95.4729 66.8303C95.1213 66.9893 94.7236 67.0138 94.3551 66.8992C93.9866 66.7846 93.673 66.5388 93.4737 66.2083C93.2743 65.8779 93.2031 65.4859 93.2735 65.1065Z" fill="#A0616A"/>
<path d="M98.5605 64.5625L96.2124 62.2144L97.7072 58.5727L99.8733 55.6151C97.5651 54.4914 95.8324 51.8295 94.5769 49.6259L94.5627 49.6012L94.8754 47.1527C94.9485 46.58 95.1779 46.0385 95.5385 45.5876C95.852 45.1955 96.2549 44.8841 96.7134 44.6796C97.1719 44.475 97.6727 44.3832 98.174 44.4119C98.6753 44.4405 99.1624 44.5887 99.5946 44.8442C100.027 45.0996 100.392 45.4549 100.658 45.8802L104.868 55.2381L104.821 55.3088L101.435 61.0807L100.511 61.68L98.5605 64.5625Z" fill="#678EF4"/>
<path d="M95.1074 37.0308C94.9525 38.1592 94.3561 39.1799 93.4491 39.8688C92.5421 40.5577 91.3987 40.8583 90.2701 40.7048C89.1415 40.5512 88.12 39.9559 87.4301 39.0497C86.7402 38.1435 86.4383 37.0005 86.5906 35.8718L86.599 35.8108C86.777 34.6972 87.3857 33.6982 88.2937 33.0294C89.2018 32.3605 90.3363 32.0753 91.4527 32.2354C92.5691 32.3955 93.5778 32.988 94.2613 33.8851C94.9447 34.7821 95.2481 35.9119 95.106 37.0307L95.1074 37.0308Z" fill="#A0616A"/>
<path d="M94.0135 39.2444C94.2342 38.7961 94.4609 38.3148 94.3989 37.819C94.3368 37.3232 93.8506 36.8493 93.3731 36.9967C93.0876 37.0848 92.8718 37.3667 92.5733 37.3811C92.1627 37.401 91.9272 36.931 91.7994 36.5403L91.2788 34.949C90.7789 35.3385 90.1992 35.6129 89.581 35.7526C88.9628 35.8923 88.3214 35.8938 87.7025 35.757C87.2192 35.6465 86.7309 35.4311 86.4474 35.0244C86.1638 34.6176 86.1655 33.9867 86.5544 33.6792C86.7451 33.5284 86.9989 33.4711 87.1811 33.3102C87.2941 33.2104 87.3721 33.0768 87.4033 32.9293C87.4345 32.7817 87.4174 32.6281 87.3545 32.491C87.2916 32.3539 87.1863 32.2408 87.054 32.1682C86.9218 32.0957 86.7698 32.0676 86.6204 32.0882L87.9311 31.9244L87.5406 31.2181C87.689 31.3191 87.857 31.3881 88.0336 31.4205C88.2102 31.4529 88.3916 31.448 88.5663 31.4063C88.9189 31.3428 89.2511 31.1976 89.5961 31.1008C90.4323 30.8872 91.3154 30.9525 92.1111 31.2866C92.9069 31.6207 93.5718 32.2055 94.0049 32.952C94.3275 32.8443 94.6751 32.8371 95.0019 32.9314C95.3286 33.0258 95.6189 33.2172 95.8344 33.4802C96.1853 33.9255 96.2807 34.5198 96.2943 35.0866C96.3198 36.2041 96.0761 37.3114 95.5838 38.315C95.4426 38.6338 95.2398 38.9215 94.987 39.1616C94.8597 39.2806 94.7079 39.3704 94.5422 39.4246C94.3766 39.4787 94.2011 39.496 94.0281 39.4752" fill="#2F2E41"/>
<path d="M24.3726 34.823C24.4428 35.8238 24.7376 36.796 25.2353 37.6672C26.2843 39.5093 28.083 40.8429 30.0204 41.6356C32.4408 42.626 35.1389 42.6565 37.7076 42.4357C40.0934 42.2306 42.4549 41.7551 44.8495 41.6571C46.7013 41.5979 48.555 41.6421 50.4019 41.7896C53.9852 42.0439 57.5535 42.5157 61.0989 43.0878C62.0591 43.2408 63.0172 43.4052 63.9734 43.581C64.0637 43.589 64.1531 43.6056 64.2403 43.6306C64.2577 43.6377 64.2856 43.6322 64.3015 43.6421C64.3304 43.6603 64.1848 43.5961 64.273 43.669C64.396 43.7981 64.5057 43.9392 64.6004 44.0902L65.9098 45.7752C66.2853 46.2584 66.6338 46.8454 67.119 47.2263C67.4612 47.4906 67.874 47.6477 68.3054 47.6778C68.7368 47.7079 69.1674 47.6095 69.5429 47.3952C69.9353 47.1473 70.2481 46.792 70.4443 46.3714C70.7455 45.8191 71.1048 45.3004 71.5161 44.8244C73.0739 43.0072 75.2389 41.8895 77.0498 40.3606C77.9269 39.6503 78.6755 38.7946 79.2629 37.8309C79.764 36.9588 80.0756 35.9909 80.1773 34.9903C80.3941 32.9582 79.7705 30.8859 78.7217 29.1571C77.5808 27.2999 75.9419 25.7999 73.9911 24.8275C71.7995 23.711 69.3745 23.1672 66.9436 22.8962C64.3627 22.6085 61.7518 22.6094 59.1583 22.6384C56.2477 22.6708 53.3423 22.7988 50.4422 23.0224C47.5382 23.2472 44.6457 23.5666 41.7645 23.9808C39 24.3783 36.2016 24.7925 33.4955 25.4958C31.1049 26.117 28.721 27.0881 26.9358 28.8476C25.3486 30.412 24.2446 32.5528 24.3726 34.823Z" fill="#AAC0F6"/>
<path d="M38.3601 35.8779C38.2419 35.8726 38.1261 35.8429 38.02 35.7906C37.9139 35.7383 37.8197 35.6647 37.7434 35.5742C37.6672 35.4838 37.6104 35.3786 37.5768 35.2651C37.5433 35.1517 37.5335 35.0326 37.5482 34.9152L37.6096 34.4316C37.6214 34.3389 37.6104 34.2447 37.5777 34.1571C37.5449 34.0695 37.4914 33.9912 37.4217 33.9289L37.0585 33.6043C36.9395 33.4981 36.8527 33.3607 36.8078 33.2076C36.7629 33.0546 36.7617 32.8921 36.8043 32.7384C36.847 32.5847 36.9318 32.4461 37.0492 32.3381C37.1665 32.2301 37.3118 32.1571 37.4685 32.1274L37.9474 32.0364C38.0392 32.019 38.1253 31.9795 38.1985 31.9214C38.2716 31.8633 38.3296 31.7882 38.3673 31.7028L38.5638 31.2564C38.6282 31.1105 38.7321 30.9855 38.8638 30.8956C38.9954 30.8056 39.1497 30.7543 39.309 30.7474C39.4683 30.7405 39.6264 30.7783 39.7654 30.8565C39.9043 30.9347 40.0186 31.0503 40.0954 31.19L40.3297 31.6173C40.3746 31.6993 40.4389 31.7692 40.5168 31.8209C40.5948 31.8725 40.6842 31.9045 40.7773 31.9139L41.262 31.9629C41.4207 31.9789 41.5718 32.039 41.698 32.1364C41.8243 32.2339 41.9208 32.3647 41.9767 32.5141C42.0325 32.6635 42.0454 32.8255 42.0139 32.9818C41.9824 33.1382 41.9078 33.2826 41.7985 33.3988L41.4646 33.7537C41.4006 33.8217 41.354 33.9043 41.329 33.9943C41.304 34.0844 41.3013 34.1792 41.3211 34.2705L41.4241 34.7471C41.4578 34.9029 41.4473 35.0651 41.3936 35.2152C41.34 35.3654 41.2454 35.4975 41.1206 35.5968C40.9958 35.696 40.8457 35.7583 40.6873 35.7767C40.5289 35.7951 40.3686 35.7688 40.2243 35.7008L39.7835 35.4931C39.699 35.4531 39.606 35.4343 39.5125 35.4383C39.4191 35.4423 39.328 35.469 39.2473 35.5162L38.826 35.7614C38.685 35.8439 38.5234 35.8844 38.3601 35.8779Z" fill="white"/>
<path d="M45.224 35.6784C45.0065 35.6684 44.8008 35.5766 44.6482 35.4214C44.556 35.3237 44.4872 35.2063 44.447 35.0781C44.4069 34.9499 44.3964 34.8142 44.4164 34.6814L44.4728 34.2377C44.4848 34.1432 44.4736 34.0473 44.4403 33.9581C44.407 33.8688 44.3524 33.7891 44.2814 33.7256L43.9445 33.4246C43.8451 33.3397 43.7659 33.2338 43.7126 33.1145C43.6593 32.9952 43.6333 32.8656 43.6365 32.735C43.6439 32.5415 43.7167 32.3563 43.8431 32.2096C43.9696 32.063 44.1421 31.9636 44.3323 31.9278L44.8056 31.8379C44.8992 31.8201 44.9871 31.7799 45.0616 31.7206C45.1362 31.6613 45.1952 31.5848 45.2336 31.4976L45.41 31.0971C45.4731 30.9451 45.5768 30.8134 45.7099 30.7165C45.843 30.6197 46.0002 30.5615 46.1643 30.5482C46.3251 30.5391 46.4851 30.5758 46.6259 30.6541C46.7666 30.7324 46.8822 30.8491 46.9592 30.9905L47.1908 31.4128C47.2366 31.4964 47.3021 31.5676 47.3816 31.6202C47.4611 31.6728 47.5522 31.7054 47.6471 31.7149L48.0964 31.7603C48.2267 31.7705 48.3531 31.8097 48.4664 31.8749C48.5797 31.9402 48.6769 32.0299 48.7511 32.1375C48.8587 32.2984 48.9086 32.491 48.8924 32.6839C48.8763 32.8768 48.7952 33.0585 48.6624 33.1992L48.3324 33.55C48.2672 33.6194 48.2198 33.7035 48.1943 33.7952C48.1688 33.8869 48.166 33.9834 48.1861 34.0764L48.2812 34.5164C48.3117 34.6435 48.3136 34.7757 48.2868 34.9035C48.26 35.0313 48.2051 35.1516 48.1262 35.2557C48.0069 35.4086 47.8391 35.5162 47.6503 35.5609C47.4616 35.6055 47.2633 35.5845 47.0882 35.5013L46.6519 35.2957C46.5658 35.2552 46.4712 35.2361 46.3761 35.2403C46.2811 35.2444 46.1885 35.2716 46.1062 35.3195L45.6899 35.5619C45.5489 35.6444 45.3872 35.6848 45.224 35.6784Z" fill="white"/>
<path d="M52.1057 35.6499C51.9875 35.6446 51.8717 35.6148 51.7656 35.5626C51.6595 35.5103 51.5653 35.4366 51.489 35.3462C51.4128 35.2558 51.356 35.1505 51.3225 35.0371C51.2889 34.9237 51.2791 34.8045 51.2938 34.6871L51.3552 34.2036C51.367 34.1108 51.356 34.0166 51.3233 33.9291C51.2905 33.8415 51.237 33.7632 51.1673 33.7009L50.8041 33.3763C50.6852 33.2701 50.5983 33.1327 50.5534 32.9796C50.5085 32.8266 50.5073 32.664 50.5499 32.5104C50.5926 32.3567 50.6774 32.218 50.7948 32.11C50.9122 32.0021 51.0574 31.9291 51.2141 31.8993L51.693 31.8084C51.7848 31.791 51.8709 31.7515 51.9441 31.6934C52.0172 31.6352 52.0752 31.5602 52.1129 31.4747L52.3094 31.0284C52.3738 30.8825 52.4777 30.7575 52.6094 30.6676C52.741 30.5776 52.8953 30.5263 53.0546 30.5194C53.2139 30.5124 53.372 30.5502 53.511 30.6285C53.6499 30.7067 53.7642 30.8222 53.841 30.962L54.0753 31.3893C54.1202 31.4713 54.1845 31.5412 54.2624 31.5928C54.3404 31.6445 54.4298 31.6764 54.5229 31.6858L55.0076 31.7348C55.1663 31.7509 55.3174 31.811 55.4436 31.9084C55.5699 32.0058 55.6664 32.1366 55.7223 32.286C55.7781 32.4354 55.791 32.5975 55.7595 32.7538C55.728 32.9102 55.6534 33.0546 55.5441 33.1707L55.2103 33.5257C55.1462 33.5937 55.0996 33.6763 55.0746 33.7663C55.0496 33.8563 55.0469 33.9511 55.0667 34.0424L55.1697 34.5191C55.2034 34.6749 55.1929 34.8371 55.1392 34.9872C55.0856 35.1374 54.991 35.2695 54.8662 35.3687C54.7414 35.468 54.5913 35.5303 54.4329 35.5487C54.2745 35.5671 54.1142 35.5408 53.9699 35.4728L53.5291 35.2651C53.4446 35.225 53.3516 35.2062 53.2581 35.2102C53.1647 35.2142 53.0736 35.241 52.9929 35.2881L52.5717 35.5334C52.4306 35.6159 52.269 35.6563 52.1057 35.6499Z" fill="white"/>
<path d="M58.6487 35.6499C58.5305 35.6446 58.4147 35.6148 58.3086 35.5626C58.2024 35.5103 58.1083 35.4366 58.032 35.3462C57.9557 35.2558 57.899 35.1505 57.8654 35.0371C57.8318 34.9237 57.8221 34.8045 57.8368 34.6871L57.8982 34.2036C57.9099 34.1108 57.899 34.0166 57.8662 33.9291C57.8335 33.8415 57.78 33.7632 57.7103 33.7009L57.3471 33.3763C57.2281 33.2701 57.1413 33.1327 57.0964 32.9796C57.0514 32.8266 57.0502 32.664 57.0929 32.5104C57.1356 32.3567 57.2204 32.218 57.3378 32.11C57.4551 32.0021 57.6004 31.9291 57.7571 31.8993L58.2359 31.8084C58.3277 31.791 58.4139 31.7515 58.4871 31.6934C58.5602 31.6352 58.6181 31.5602 58.6559 31.4747L58.8524 31.0284C58.9168 30.8825 59.0207 30.7575 59.1523 30.6676C59.284 30.5776 59.4382 30.5263 59.5975 30.5194C59.7569 30.5124 59.915 30.5502 60.0539 30.6285C60.1929 30.7067 60.3072 30.8222 60.384 30.962L60.6183 31.3893C60.6632 31.4713 60.7274 31.5412 60.8054 31.5928C60.8834 31.6445 60.9728 31.6764 61.0658 31.6858L61.5506 31.7348C61.7093 31.7509 61.8603 31.811 61.9866 31.9084C62.1129 32.0058 62.2094 32.1366 62.2652 32.286C62.3211 32.4354 62.334 32.5975 62.3025 32.7538C62.271 32.9102 62.1964 33.0546 62.0871 33.1707L61.7532 33.5257C61.6891 33.5937 61.6426 33.6763 61.6176 33.7663C61.5926 33.8563 61.5898 33.9511 61.6097 34.0424L61.7127 34.5191C61.7464 34.6749 61.7358 34.8371 61.6822 34.9872C61.6286 35.1374 61.534 35.2695 61.4092 35.3687C61.2844 35.468 61.1343 35.5303 60.9759 35.5487C60.8175 35.5671 60.6571 35.5408 60.5129 35.4728L60.072 35.2651C59.9875 35.225 59.8945 35.2062 59.8011 35.2102C59.7077 35.2142 59.6166 35.241 59.5359 35.2881L59.1146 35.5334C58.9736 35.6159 58.8119 35.6563 58.6487 35.6499Z" fill="white"/>
<path d="M64.989 35.6499C64.8708 35.6446 64.755 35.6148 64.6489 35.5626C64.5428 35.5103 64.4486 35.4366 64.3723 35.3462C64.2961 35.2558 64.2393 35.1505 64.2058 35.0371C64.1722 34.9237 64.1624 34.8045 64.1771 34.6871L64.2386 34.2036C64.2503 34.1108 64.2393 34.0166 64.2066 33.9291C64.1738 33.8415 64.1203 33.7632 64.0506 33.7009L63.6874 33.3763C63.5685 33.2701 63.4816 33.1327 63.4367 32.9796C63.3918 32.8266 63.3906 32.664 63.4332 32.5104C63.4759 32.3567 63.5607 32.218 63.6781 32.11C63.7955 32.0021 63.9407 31.9291 64.0974 31.8993L64.5763 31.8084C64.6681 31.791 64.7542 31.7515 64.8274 31.6934C64.9006 31.6352 64.9585 31.5602 64.9962 31.4747L65.1927 31.0284C65.2571 30.8825 65.361 30.7575 65.4927 30.6676C65.6243 30.5776 65.7786 30.5263 65.9379 30.5194C66.0972 30.5124 66.2553 30.5502 66.3943 30.6285C66.5332 30.7067 66.6475 30.8222 66.7243 30.962L66.9586 31.3893C67.0035 31.4713 67.0678 31.5412 67.1457 31.5928C67.2237 31.6445 67.3131 31.6764 67.4062 31.6858L67.8909 31.7348C68.0496 31.7509 68.2007 31.811 68.3269 31.9084C68.4532 32.0058 68.5497 32.1366 68.6056 32.286C68.6614 32.4354 68.6743 32.5975 68.6428 32.7538C68.6113 32.9102 68.5367 33.0546 68.4274 33.1707L68.0936 33.5257C68.0295 33.5937 67.9829 33.6763 67.9579 33.7663C67.9329 33.8563 67.9302 33.9511 67.95 34.0424L68.053 34.5191C68.0867 34.6749 68.0762 34.8371 68.0225 34.9872C67.9689 35.1374 67.8743 35.2695 67.7495 35.3687C67.6247 35.468 67.4746 35.5303 67.3162 35.5487C67.1578 35.5671 66.9975 35.5408 66.8532 35.4728L66.4124 35.2651C66.3279 35.225 66.2349 35.2062 66.1414 35.2102C66.048 35.2142 65.9569 35.241 65.8762 35.2881L65.455 35.5334C65.3139 35.6159 65.1523 35.6563 64.989 35.6499Z" fill="white"/>
<path opacity="0.2" d="M64.989 35.6499C64.8708 35.6446 64.755 35.6148 64.6489 35.5626C64.5428 35.5103 64.4486 35.4366 64.3723 35.3462C64.2961 35.2558 64.2393 35.1505 64.2058 35.0371C64.1722 34.9237 64.1624 34.8045 64.1771 34.6871L64.2386 34.2036C64.2503 34.1108 64.2393 34.0166 64.2066 33.9291C64.1738 33.8415 64.1203 33.7632 64.0506 33.7009L63.6874 33.3763C63.5685 33.2701 63.4816 33.1327 63.4367 32.9796C63.3918 32.8266 63.3906 32.664 63.4332 32.5104C63.4759 32.3567 63.5607 32.218 63.6781 32.11C63.7954 32.0021 63.9407 31.9291 64.0974 31.8993L64.5763 31.8084C64.6681 31.791 64.7542 31.7515 64.8274 31.6934C64.9005 31.6352 64.9585 31.5602 64.9962 31.4747L65.1927 31.0284C65.2571 30.8825 65.361 30.7575 65.4927 30.6676C65.6243 30.5776 65.7785 30.5263 65.9379 30.5194C66.0972 30.5125 66.2553 30.5502 66.3942 30.6285C66.5332 30.7067 66.6475 30.8222 66.7243 30.962L66.9586 31.3893C67.0035 31.4713 67.0678 31.5412 67.1457 31.5928C67.2237 31.6445 67.3131 31.6764 67.4062 31.6859L67.8909 31.7348C68.0496 31.7509 68.2006 31.811 68.3269 31.9084C68.4532 32.0058 68.5497 32.1366 68.6056 32.286C68.6614 32.4354 68.6743 32.5975 68.6428 32.7538C68.6113 32.9102 68.5367 33.0546 68.4274 33.1707L68.0935 33.5257C68.0295 33.5937 67.9829 33.6763 67.9579 33.7663C67.9329 33.8564 67.9302 33.9511 67.95 34.0424L68.053 34.5191C68.0867 34.6749 68.0762 34.8371 68.0225 34.9872C67.9689 35.1374 67.8743 35.2695 67.7495 35.3687C67.6247 35.468 67.4746 35.5303 67.3162 35.5487C67.1578 35.5671 66.9975 35.5408 66.8532 35.4728L66.4124 35.2651C66.3279 35.2251 66.2348 35.2062 66.1414 35.2102C66.048 35.2143 65.9569 35.241 65.8762 35.2881L65.4549 35.5334C65.3139 35.6159 65.1523 35.6563 64.989 35.6499Z" fill="white"/>
<path d="M107.513 91.9852L107.709 87.5827C109.75 86.4916 112.027 85.9153 114.342 85.9038C111.156 88.508 111.554 93.5281 109.394 97.0302C108.712 98.1173 107.795 99.037 106.709 99.7212C105.623 100.405 104.397 100.836 103.122 100.983L100.456 102.615C100.091 100.576 100.171 98.4814 100.693 96.4765C101.214 94.4716 102.164 92.6035 103.477 91.0011C104.223 90.1094 105.078 89.3152 106.022 88.6371C106.66 90.3205 107.513 91.9852 107.513 91.9852Z" fill="#F2F2F2"/>
<path d="M122.796 103H51.3454C51.2914 103 51.2395 102.978 51.2013 102.94C51.1631 102.902 51.1416 102.85 51.1416 102.796C51.1416 102.742 51.1631 102.69 51.2013 102.652C51.2395 102.614 51.2914 102.592 51.3454 102.592H122.796C122.85 102.592 122.902 102.614 122.94 102.652C122.979 102.69 123 102.742 123 102.796C123 102.85 122.979 102.902 122.94 102.94C122.902 102.978 122.85 103 122.796 103Z" fill="#CACACA"/>
</g>
<defs>
<clipPath id="clip0_315_233">
<rect width="123" height="103" fill="white"/>
</clipPath>
</defs>
</svg>
